<svg xmlns="http://www.w3.org/2000/svg" xmlns:xlink="http://www.w3.org/1999/xlink" width="1080" zoomAndPan="magnify" viewBox="0 0 810 809.999993" height="1080" preserveAspectRatio="xMidYMid meet" version="1.0"><defs><clipPath id="b689521f81"><path d="M 0 4 L 809.96875 4 L 809.96875 806 L 0 806 Z M 0 4 " clip-rule="nonzero"/></clipPath></defs><g clip-path="url(#b689521f81)"><path fill="#f1a20b" d="M 793.949219 518.699219 L 662.492188 518.699219 L 662.492188 118.054688 C 662.488281 116.207031 662.441406 114.359375 662.347656 112.511719 C 662.257812 110.664062 662.117188 108.820312 661.9375 106.984375 C 661.753906 105.144531 661.523438 103.308594 661.25 101.480469 C 660.976562 99.652344 660.660156 97.832031 660.296875 96.019531 C 659.9375 94.207031 659.53125 92.402344 659.078125 90.609375 C 658.628906 88.816406 658.132812 87.035156 657.59375 85.265625 C 657.058594 83.5 656.476562 81.742188 655.851562 80.003906 C 655.230469 78.261719 654.5625 76.539062 653.855469 74.832031 C 653.144531 73.125 652.394531 71.433594 651.605469 69.765625 C 650.8125 68.09375 649.980469 66.441406 649.109375 64.8125 C 648.238281 63.183594 647.324219 61.574219 646.375 59.988281 C 645.421875 58.40625 644.433594 56.84375 643.40625 55.304688 C 642.378906 53.769531 641.3125 52.257812 640.210938 50.773438 C 639.109375 49.289062 637.972656 47.832031 636.800781 46.402344 C 635.628906 44.976562 634.421875 43.574219 633.179688 42.207031 C 631.9375 40.835938 630.664062 39.496094 629.355469 38.191406 C 628.046875 36.882812 626.710938 35.609375 625.339844 34.367188 C 623.96875 33.125 622.570312 31.917969 621.140625 30.746094 C 619.714844 29.570312 618.257812 28.433594 616.773438 27.332031 C 615.289062 26.230469 613.777344 25.167969 612.238281 24.140625 C 610.703125 23.113281 609.140625 22.121094 607.558594 21.171875 C 605.972656 20.21875 604.363281 19.308594 602.734375 18.4375 C 601.105469 17.5625 599.453125 16.734375 597.78125 15.941406 C 596.113281 15.148438 594.421875 14.398438 592.714844 13.691406 C 591.007812 12.984375 589.285156 12.316406 587.542969 11.691406 C 585.804688 11.070312 584.050781 10.488281 582.28125 9.949219 C 580.511719 9.410156 578.730469 8.917969 576.9375 8.464844 C 575.144531 8.015625 573.34375 7.609375 571.53125 7.246094 C 569.714844 6.882812 567.894531 6.566406 566.066406 6.292969 C 564.238281 6.019531 562.40625 5.792969 560.566406 5.609375 C 558.726562 5.425781 556.882812 5.289062 555.035156 5.195312 C 553.191406 5.101562 551.34375 5.054688 549.492188 5.054688 C 548.242188 4.992188 116.933594 5.171875 115.792969 4.988281 C 113.941406 4.992188 112.09375 5.039062 110.246094 5.132812 C 108.398438 5.226562 106.558594 5.363281 104.714844 5.546875 C 102.875 5.726562 101.042969 5.957031 99.210938 6.230469 C 97.382812 6.503906 95.5625 6.820312 93.75 7.183594 C 91.9375 7.542969 90.132812 7.949219 88.339844 8.402344 C 86.546875 8.851562 84.765625 9.347656 82.996094 9.882812 C 81.226562 10.421875 79.46875 11.003906 77.730469 11.628906 C 75.988281 12.253906 74.265625 12.917969 72.554688 13.628906 C 70.847656 14.335938 69.160156 15.085938 67.488281 15.878906 C 65.816406 16.667969 64.164062 17.5 62.535156 18.371094 C 60.902344 19.246094 59.296875 20.15625 57.710938 21.109375 C 56.125 22.058594 54.5625 23.050781 53.027344 24.078125 C 51.488281 25.105469 49.976562 26.171875 48.492188 27.273438 C 47.007812 28.375 45.550781 29.511719 44.121094 30.683594 C 42.691406 31.859375 41.292969 33.066406 39.921875 34.308594 C 38.550781 35.550781 37.210938 36.824219 35.90625 38.132812 C 34.597656 39.441406 33.324219 40.777344 32.082031 42.148438 C 30.839844 43.519531 29.632812 44.917969 28.457031 46.347656 C 27.285156 47.777344 26.148438 49.234375 25.046875 50.71875 C 23.941406 52.207031 22.878906 53.71875 21.851562 55.253906 C 20.824219 56.792969 19.832031 58.351562 18.882812 59.9375 C 17.929688 61.523438 17.019531 63.132812 16.148438 64.765625 C 15.273438 66.394531 14.441406 68.046875 13.652344 69.71875 C 12.859375 71.386719 12.109375 73.078125 11.402344 74.785156 C 10.691406 76.496094 10.027344 78.21875 9.402344 79.960938 C 8.777344 81.699219 8.199219 83.457031 7.660156 85.226562 C 7.121094 86.996094 6.628906 88.777344 6.175781 90.570312 C 5.726562 92.363281 5.320312 94.167969 4.957031 95.980469 C 4.59375 97.792969 4.277344 99.613281 4.003906 101.445312 C 3.730469 103.273438 3.503906 105.105469 3.320312 106.949219 C 3.136719 108.789062 3 110.632812 2.90625 112.476562 C 2.816406 114.324219 2.769531 116.171875 2.765625 118.023438 L 2.765625 214.390625 C 2.765625 214.921875 2.792969 215.449219 2.84375 215.976562 C 2.894531 216.5 2.972656 217.023438 3.074219 217.542969 C 3.179688 218.058594 3.308594 218.574219 3.460938 219.078125 C 3.613281 219.585938 3.792969 220.082031 3.992188 220.570312 C 4.195312 221.058594 4.421875 221.535156 4.671875 222.003906 C 4.921875 222.46875 5.191406 222.921875 5.484375 223.363281 C 5.78125 223.800781 6.09375 224.226562 6.429688 224.632812 C 6.765625 225.042969 7.121094 225.433594 7.492188 225.808594 C 7.867188 226.183594 8.257812 226.535156 8.667969 226.871094 C 9.074219 227.207031 9.5 227.523438 9.941406 227.816406 C 10.378906 228.109375 10.832031 228.382812 11.296875 228.628906 C 11.765625 228.878906 12.242188 229.105469 12.730469 229.308594 C 13.21875 229.511719 13.714844 229.6875 14.222656 229.839844 C 14.730469 229.996094 15.242188 230.121094 15.757812 230.226562 C 16.277344 230.328125 16.800781 230.40625 17.328125 230.457031 C 17.851562 230.507812 18.378906 230.535156 18.910156 230.535156 L 196.605469 230.535156 L 196.605469 303.113281 C 58.433594 313.796875 -15.808594 480.582031 69.820312 589.886719 L 1.246094 728.9375 C 0.902344 729.65625 0.617188 730.398438 0.386719 731.160156 C 0.152344 731.925781 -0.0195312 732.699219 -0.140625 733.488281 C -0.257812 734.277344 -0.316406 735.070312 -0.316406 735.867188 C -0.316406 736.664062 -0.261719 737.457031 -0.144531 738.246094 C -0.0273438 739.035156 0.144531 739.8125 0.375 740.578125 C 0.605469 741.339844 0.890625 742.082031 1.230469 742.804688 C 1.566406 743.527344 1.957031 744.21875 2.398438 744.882812 C 2.84375 745.546875 3.328125 746.175781 3.863281 746.765625 C 4.398438 747.359375 4.972656 747.910156 5.585938 748.417969 C 6.203125 748.925781 6.851562 749.382812 7.535156 749.796875 C 8.214844 750.207031 8.925781 750.570312 9.660156 750.875 C 10.398438 751.183594 11.152344 751.4375 11.925781 751.632812 C 12.695312 751.828125 13.480469 751.96875 14.273438 752.050781 C 15.066406 752.132812 15.863281 752.152344 16.65625 752.117188 C 17.453125 752.082031 18.246094 751.988281 19.027344 751.835938 C 19.808594 751.683594 20.578125 751.476562 21.328125 751.210938 L 88.28125 726.429688 L 107.386719 793.460938 C 107.617188 794.230469 107.90625 794.980469 108.25 795.707031 C 108.597656 796.433594 108.992188 797.132812 109.441406 797.800781 C 109.886719 798.46875 110.382812 799.101562 110.925781 799.695312 C 111.46875 800.292969 112.050781 800.84375 112.675781 801.351562 C 113.296875 801.859375 113.957031 802.320312 114.648438 802.730469 C 115.339844 803.140625 116.058594 803.5 116.804688 803.800781 C 117.550781 804.105469 118.3125 804.351562 119.097656 804.542969 C 119.878906 804.734375 120.667969 804.863281 121.472656 804.9375 C 122.273438 805.007812 123.074219 805.023438 123.878906 804.976562 C 124.683594 804.929688 125.476562 804.820312 126.265625 804.65625 C 127.054688 804.492188 127.824219 804.269531 128.578125 803.988281 C 129.332031 803.710938 130.0625 803.375 130.769531 802.988281 C 131.472656 802.597656 132.144531 802.160156 132.785156 801.671875 C 133.425781 801.183594 134.027344 800.652344 134.585938 800.074219 C 135.148438 799.496094 135.660156 798.878906 136.128906 798.226562 C 136.601562 797.574219 137.019531 796.886719 137.386719 796.171875 L 204.222656 660.828125 C 209.855469 661.328125 215.484375 661.332031 221.113281 660.835938 L 287.949219 796.171875 C 288.316406 796.890625 288.734375 797.574219 289.207031 798.230469 C 289.675781 798.882812 290.191406 799.5 290.75 800.078125 C 291.3125 800.65625 291.914062 801.1875 292.554688 801.675781 C 293.195312 802.164062 293.867188 802.601562 294.574219 802.992188 C 295.28125 803.378906 296.011719 803.714844 296.765625 803.992188 C 297.519531 804.273438 298.292969 804.496094 299.082031 804.660156 C 299.871094 804.824219 300.667969 804.929688 301.46875 804.976562 C 302.273438 805.019531 303.078125 805.007812 303.878906 804.933594 C 304.683594 804.859375 305.472656 804.730469 306.257812 804.539062 C 307.039062 804.347656 307.804688 804.097656 308.550781 803.792969 C 309.292969 803.488281 310.011719 803.128906 310.707031 802.71875 C 311.398438 802.304688 312.054688 801.84375 312.679688 801.335938 C 313.304688 800.824219 313.886719 800.273438 314.425781 799.675781 C 314.96875 799.078125 315.460938 798.445312 315.910156 797.777344 C 316.355469 797.105469 316.75 796.40625 317.09375 795.679688 C 317.4375 794.949219 317.726562 794.199219 317.957031 793.425781 L 336.921875 726.429688 L 404.015625 751.226562 C 404.765625 751.488281 405.535156 751.695312 406.316406 751.847656 C 407.097656 752 407.890625 752.089844 408.683594 752.125 C 409.480469 752.160156 410.277344 752.136719 411.070312 752.054688 C 411.863281 751.972656 412.644531 751.832031 413.417969 751.632812 C 414.191406 751.4375 414.945312 751.183594 415.679688 750.875 C 416.414062 750.566406 417.121094 750.207031 417.804688 749.792969 C 418.488281 749.382812 419.136719 748.921875 419.75 748.414062 C 420.363281 747.90625 420.9375 747.355469 421.472656 746.761719 C 422.003906 746.171875 422.492188 745.542969 422.933594 744.878906 C 423.375 744.214844 423.765625 743.519531 424.101562 742.800781 C 424.441406 742.078125 424.726562 741.335938 424.957031 740.574219 C 425.1875 739.808594 425.359375 739.035156 425.476562 738.246094 C 425.589844 737.457031 425.648438 736.664062 425.648438 735.867188 C 425.648438 735.070312 425.589844 734.277344 425.472656 733.488281 C 425.351562 732.699219 425.179688 731.921875 424.949219 731.160156 C 424.714844 730.398438 424.429688 729.65625 424.089844 728.933594 L 417.78125 716.148438 C 471.464844 716.140625 645.488281 716.101562 701.996094 716.117188 C 703.804688 716.074219 705.613281 715.988281 707.414062 715.855469 C 709.21875 715.722656 711.019531 715.546875 712.816406 715.328125 C 714.609375 715.109375 716.398438 714.84375 718.179688 714.539062 C 719.964844 714.230469 721.738281 713.878906 723.503906 713.484375 C 725.269531 713.089844 727.023438 712.652344 728.765625 712.171875 C 730.511719 711.691406 732.242188 711.167969 733.960938 710.605469 C 735.679688 710.039062 737.382812 709.433594 739.070312 708.785156 C 740.757812 708.136719 742.429688 707.445312 744.085938 706.714844 C 745.738281 705.984375 747.375 705.214844 748.992188 704.402344 C 750.609375 703.59375 752.207031 702.742188 753.78125 701.855469 C 755.355469 700.964844 756.910156 700.039062 758.441406 699.074219 C 759.96875 698.109375 761.476562 697.105469 762.957031 696.070312 C 764.4375 695.03125 765.890625 693.957031 767.320312 692.847656 C 768.746094 691.734375 770.148438 690.589844 771.519531 689.414062 C 772.890625 688.234375 774.234375 687.023438 775.546875 685.777344 C 776.859375 684.535156 778.140625 683.257812 779.390625 681.953125 C 780.644531 680.644531 781.859375 679.308594 783.046875 677.941406 C 784.230469 676.574219 785.382812 675.179688 786.496094 673.757812 C 787.613281 672.332031 788.695312 670.882812 789.742188 669.40625 C 790.785156 667.929688 791.792969 666.429688 792.765625 664.90625 C 793.738281 663.378906 794.671875 661.832031 795.570312 660.261719 C 796.464844 658.6875 797.320312 657.097656 798.140625 655.484375 C 798.957031 653.871094 799.734375 652.238281 800.472656 650.585938 C 801.210938 648.933594 801.910156 647.265625 802.566406 645.582031 C 803.222656 643.894531 803.835938 642.195312 804.410156 640.480469 C 804.984375 638.761719 805.515625 637.035156 806.003906 635.292969 C 806.492188 633.550781 806.9375 631.796875 807.339844 630.035156 C 807.742188 628.273438 808.101562 626.5 808.414062 624.71875 C 808.730469 622.9375 809.003906 621.148438 809.230469 619.355469 C 809.460938 617.558594 809.644531 615.761719 809.785156 613.957031 C 809.921875 612.15625 810.019531 610.347656 810.070312 608.539062 C 810.121094 606.734375 810.128906 604.925781 810.09375 603.117188 L 810.09375 534.839844 C 810.09375 534.3125 810.066406 533.785156 810.015625 533.257812 C 809.964844 532.730469 809.886719 532.210938 809.785156 531.691406 C 809.679688 531.171875 809.554688 530.660156 809.398438 530.152344 C 809.246094 529.648438 809.070312 529.152344 808.867188 528.660156 C 808.664062 528.171875 808.4375 527.695312 808.1875 527.230469 C 807.941406 526.761719 807.667969 526.308594 807.375 525.871094 C 807.082031 525.429688 806.765625 525.007812 806.429688 524.597656 C 806.097656 524.1875 805.742188 523.796875 805.367188 523.421875 C 804.992188 523.050781 804.601562 522.695312 804.195312 522.359375 C 803.785156 522.023438 803.359375 521.710938 802.921875 521.414062 C 802.480469 521.121094 802.027344 520.851562 801.5625 520.601562 C 801.09375 520.351562 800.617188 520.125 800.128906 519.925781 C 799.640625 519.722656 799.144531 519.542969 798.636719 519.390625 C 798.132812 519.238281 797.617188 519.109375 797.101562 519.007812 C 796.582031 518.902344 796.058594 518.828125 795.53125 518.773438 C 795.007812 518.722656 794.480469 518.699219 793.949219 518.699219 Z M 549.492188 37.339844 C 550.816406 37.339844 552.132812 37.375 553.453125 37.441406 C 554.773438 37.507812 556.089844 37.605469 557.402344 37.738281 C 558.714844 37.867188 560.027344 38.03125 561.332031 38.226562 C 562.636719 38.421875 563.9375 38.648438 565.234375 38.90625 C 566.527344 39.164062 567.816406 39.453125 569.097656 39.777344 C 570.378906 40.097656 571.648438 40.453125 572.914062 40.835938 C 574.175781 41.21875 575.429688 41.636719 576.671875 42.082031 C 577.914062 42.527344 579.148438 43.003906 580.367188 43.507812 C 581.585938 44.015625 582.792969 44.550781 583.988281 45.117188 C 585.179688 45.679688 586.359375 46.273438 587.523438 46.898438 C 588.6875 47.519531 589.835938 48.171875 590.96875 48.851562 C 592.101562 49.53125 593.214844 50.238281 594.3125 50.972656 C 595.410156 51.707031 596.488281 52.464844 597.550781 53.253906 C 598.609375 54.039062 599.652344 54.851562 600.671875 55.691406 C 601.691406 56.527344 602.691406 57.390625 603.671875 58.277344 C 604.648438 59.164062 605.605469 60.074219 606.539062 61.007812 C 607.472656 61.941406 608.382812 62.898438 609.269531 63.875 C 610.15625 64.855469 611.019531 65.855469 611.855469 66.875 C 612.695312 67.894531 613.507812 68.9375 614.292969 69.996094 C 615.082031 71.058594 615.839844 72.136719 616.574219 73.234375 C 617.308594 74.332031 618.015625 75.445312 618.695312 76.578125 C 619.375 77.710938 620.027344 78.859375 620.648438 80.023438 C 621.269531 81.1875 621.867188 82.367188 622.429688 83.5625 C 622.996094 84.753906 623.53125 85.960938 624.039062 87.179688 C 624.542969 88.402344 625.019531 89.632812 625.464844 90.875 C 625.910156 92.117188 626.324219 93.371094 626.710938 94.632812 C 627.09375 95.898438 627.449219 97.171875 627.769531 98.449219 C 628.089844 99.730469 628.382812 101.019531 628.640625 102.3125 C 628.898438 103.609375 629.125 104.910156 629.320312 106.214844 C 629.515625 107.523438 629.679688 108.832031 629.808594 110.144531 C 629.941406 111.460938 630.039062 112.777344 630.105469 114.09375 C 630.171875 115.414062 630.207031 116.734375 630.207031 118.054688 L 630.207031 518.699219 L 514.953125 518.699219 C 514.164062 518.699219 513.378906 518.753906 512.597656 518.871094 C 511.816406 518.984375 511.046875 519.15625 510.292969 519.382812 C 509.535156 519.609375 508.800781 519.894531 508.085938 520.230469 C 507.371094 520.5625 506.683594 520.949219 506.027344 521.386719 C 505.367188 521.824219 504.746094 522.304688 504.160156 522.832031 C 503.570312 523.359375 503.027344 523.929688 502.523438 524.535156 C 502.019531 525.144531 501.5625 525.785156 501.152344 526.460938 C 500.742188 527.136719 500.382812 527.839844 500.078125 528.566406 C 498.601562 547.324219 498.171875 566.105469 498.796875 584.910156 C 498.804688 586.511719 498.777344 588.113281 498.707031 589.710938 C 498.640625 591.3125 498.53125 592.90625 498.382812 594.503906 C 498.238281 596.097656 498.050781 597.6875 497.828125 599.273438 C 497.605469 600.859375 497.339844 602.4375 497.039062 604.007812 C 496.738281 605.582031 496.398438 607.144531 496.019531 608.703125 C 495.640625 610.257812 495.226562 611.804688 494.773438 613.339844 C 494.320312 614.875 493.828125 616.398438 493.300781 617.910156 C 492.773438 619.421875 492.207031 620.917969 491.605469 622.402344 C 491.003906 623.886719 490.367188 625.355469 489.695312 626.808594 C 489.019531 628.261719 488.3125 629.699219 487.570312 631.117188 C 486.828125 632.535156 486.046875 633.933594 485.238281 635.3125 C 484.425781 636.695312 483.582031 638.054688 482.703125 639.390625 C 481.824219 640.730469 480.914062 642.046875 479.972656 643.339844 C 479.027344 644.636719 478.054688 645.90625 477.050781 647.152344 C 476.046875 648.398438 475.011719 649.621094 473.945312 650.816406 C 472.882812 652.015625 471.789062 653.183594 470.667969 654.324219 C 469.546875 655.46875 468.398438 656.582031 467.222656 657.671875 C 466.042969 658.757812 464.84375 659.8125 463.613281 660.839844 C 462.386719 661.871094 461.136719 662.867188 459.859375 663.832031 C 458.582031 664.800781 457.28125 665.734375 455.960938 666.636719 C 454.636719 667.539062 453.292969 668.410156 451.929688 669.246094 C 450.566406 670.085938 449.179688 670.890625 447.777344 671.660156 C 446.371094 672.429688 444.949219 673.164062 443.511719 673.863281 C 442.070312 674.5625 440.613281 675.226562 439.140625 675.855469 C 437.667969 676.484375 436.183594 677.078125 434.679688 677.632812 C 433.179688 678.191406 431.664062 678.710938 430.136719 679.191406 C 428.609375 679.671875 427.074219 680.117188 425.523438 680.523438 C 423.976562 680.933594 422.417969 681.300781 420.851562 681.632812 C 419.285156 681.960938 417.710938 682.253906 416.128906 682.507812 C 414.550781 682.761719 412.964844 682.976562 411.371094 683.152344 C 409.78125 683.332031 408.1875 683.46875 406.585938 683.566406 C 404.988281 683.664062 403.390625 683.722656 401.789062 683.742188 L 357.414062 593.816406 C 356.75 592.6875 355.957031 591.660156 355.03125 590.734375 C 441.59375 481.535156 367.492188 313.820312 228.890625 303.113281 C 228.8125 302.722656 229.039062 214.378906 228.808594 214.050781 L 228.808594 118.023438 C 228.8125 114.273438 228.625 110.53125 228.253906 106.800781 C 227.878906 103.066406 227.320312 99.363281 226.578125 95.6875 C 225.835938 92.011719 224.914062 88.382812 223.808594 84.800781 C 222.703125 81.214844 221.421875 77.695312 219.964844 74.242188 C 218.507812 70.785156 216.882812 67.410156 215.089844 64.117188 C 213.296875 60.824219 211.34375 57.628906 209.230469 54.53125 C 207.117188 51.429688 204.855469 48.445312 202.445312 45.574219 C 200.03125 42.703125 197.484375 39.957031 194.800781 37.339844 Z M 196.523438 198.25 L 35.050781 198.25 L 35.050781 118.023438 C 35.054688 116.703125 35.085938 115.382812 35.152344 114.066406 C 35.21875 112.746094 35.320312 111.429688 35.449219 110.117188 C 35.582031 108.800781 35.746094 107.492188 35.941406 106.1875 C 36.136719 104.882812 36.363281 103.582031 36.621094 102.285156 C 36.878906 100.992188 37.171875 99.703125 37.492188 98.425781 C 37.816406 97.144531 38.167969 95.871094 38.554688 94.609375 C 38.9375 93.347656 39.355469 92.09375 39.800781 90.851562 C 40.246094 89.609375 40.722656 88.378906 41.226562 87.160156 C 41.734375 85.9375 42.269531 84.734375 42.835938 83.539062 C 43.402344 82.347656 43.996094 81.167969 44.621094 80.003906 C 45.242188 78.839844 45.894531 77.695312 46.574219 76.5625 C 47.253906 75.429688 47.960938 74.316406 48.695312 73.21875 C 49.429688 72.121094 50.191406 71.042969 50.976562 69.984375 C 51.765625 68.921875 52.578125 67.882812 53.417969 66.863281 C 54.253906 65.84375 55.117188 64.84375 56.003906 63.867188 C 56.890625 62.890625 57.804688 61.933594 58.738281 61 C 59.671875 60.070312 60.628906 59.160156 61.605469 58.273438 C 62.585938 57.386719 63.585938 56.527344 64.605469 55.6875 C 65.628906 54.851562 66.667969 54.039062 67.730469 53.253906 C 68.789062 52.46875 69.867188 51.710938 70.96875 50.976562 C 72.066406 50.242188 73.179688 49.539062 74.3125 48.859375 C 75.445312 48.179688 76.59375 47.53125 77.757812 46.910156 C 78.921875 46.289062 80.101562 45.695312 81.296875 45.128906 C 82.488281 44.566406 83.695312 44.03125 84.917969 43.527344 C 86.136719 43.023438 87.367188 42.546875 88.609375 42.101562 C 89.855469 41.660156 91.109375 41.246094 92.371094 40.863281 C 93.632812 40.480469 94.90625 40.128906 96.1875 39.808594 C 97.46875 39.488281 98.753906 39.199219 100.050781 38.941406 C 101.34375 38.683594 102.644531 38.457031 103.953125 38.265625 C 105.257812 38.070312 106.566406 37.910156 107.882812 37.78125 C 109.195312 37.652344 110.511719 37.554688 111.828125 37.488281 C 113.148438 37.425781 114.46875 37.390625 115.789062 37.390625 C 117.109375 37.390625 118.429688 37.425781 119.746094 37.488281 C 121.066406 37.554688 122.382812 37.652344 123.695312 37.78125 C 125.007812 37.910156 126.320312 38.070312 127.625 38.265625 C 128.929688 38.457031 130.230469 38.683594 131.527344 38.941406 C 132.820312 39.199219 134.109375 39.488281 135.390625 39.808594 C 136.671875 40.128906 137.941406 40.480469 139.207031 40.863281 C 140.46875 41.246094 141.722656 41.660156 142.964844 42.101562 C 144.207031 42.546875 145.441406 43.023438 146.660156 43.527344 C 147.878906 44.03125 149.085938 44.566406 150.28125 45.128906 C 151.472656 45.695312 152.652344 46.289062 153.816406 46.910156 C 154.980469 47.53125 156.128906 48.179688 157.261719 48.859375 C 158.394531 49.539062 159.511719 50.242188 160.609375 50.976562 C 161.707031 51.710938 162.785156 52.46875 163.847656 53.253906 C 164.910156 54.039062 165.949219 54.851562 166.96875 55.6875 C 167.992188 56.527344 168.992188 57.386719 169.96875 58.273438 C 170.949219 59.160156 171.90625 60.070312 172.839844 61 C 173.773438 61.933594 174.683594 62.890625 175.570312 63.867188 C 176.457031 64.84375 177.320312 65.84375 178.160156 66.863281 C 179 67.882812 179.8125 68.921875 180.597656 69.984375 C 181.386719 71.042969 182.144531 72.121094 182.878906 73.21875 C 183.613281 74.316406 184.320312 75.429688 185 76.5625 C 185.683594 77.695312 186.332031 78.839844 186.957031 80.003906 C 187.578125 81.167969 188.175781 82.347656 188.738281 83.539062 C 189.304688 84.734375 189.839844 85.9375 190.347656 87.160156 C 190.855469 88.378906 191.332031 89.609375 191.777344 90.851562 C 192.222656 92.09375 192.636719 93.347656 193.023438 94.609375 C 193.40625 95.871094 193.761719 97.144531 194.082031 98.425781 C 194.40625 99.703125 194.695312 100.992188 194.953125 102.285156 C 195.214844 103.582031 195.441406 104.882812 195.636719 106.1875 C 195.832031 107.492188 195.996094 108.800781 196.125 110.117188 C 196.257812 111.429688 196.355469 112.746094 196.421875 114.066406 C 196.488281 115.382812 196.523438 116.703125 196.523438 118.023438 Z M 126.964844 744.371094 L 114.550781 700.8125 C 114.394531 700.28125 114.214844 699.757812 114.003906 699.246094 C 113.796875 698.734375 113.5625 698.230469 113.300781 697.742188 C 113.042969 697.253906 112.757812 696.78125 112.449219 696.320312 C 112.140625 695.863281 111.808594 695.417969 111.457031 694.992188 C 111.101562 694.566406 110.726562 694.160156 110.332031 693.773438 C 109.9375 693.386719 109.523438 693.019531 109.089844 692.675781 C 108.65625 692.328125 108.207031 692.007812 107.742188 691.707031 C 107.277344 691.410156 106.796875 691.132812 106.304688 690.882812 C 105.808594 690.632812 105.304688 690.410156 104.789062 690.210938 C 104.269531 690.011719 103.746094 689.839844 103.210938 689.695312 C 102.675781 689.550781 102.136719 689.433594 101.589844 689.34375 C 101.042969 689.253906 100.496094 689.195312 99.941406 689.160156 C 99.390625 689.128906 98.835938 689.121094 98.285156 689.144531 C 97.730469 689.167969 97.179688 689.21875 96.632812 689.300781 C 96.085938 689.378906 95.542969 689.488281 95.003906 689.621094 C 94.46875 689.757812 93.941406 689.917969 93.417969 690.109375 L 48.128906 706.867188 L 93.273438 615.335938 C 98.753906 620.253906 104.519531 624.816406 110.5625 629.023438 C 116.609375 633.230469 122.890625 637.050781 129.40625 640.484375 C 135.921875 643.914062 142.625 646.933594 149.515625 649.539062 C 156.40625 652.140625 163.429688 654.3125 170.585938 656.050781 Z M 65.554688 481.777344 C 65.558594 479.367188 65.621094 476.960938 65.742188 474.558594 C 65.863281 472.152344 66.042969 469.75 66.28125 467.355469 C 66.519531 464.957031 66.816406 462.570312 67.171875 460.1875 C 67.527344 457.804688 67.941406 455.433594 68.410156 453.074219 C 68.882812 450.710938 69.414062 448.363281 70 446.027344 C 70.585938 443.691406 71.230469 441.371094 71.933594 439.066406 C 72.632812 436.761719 73.390625 434.476562 74.203125 432.210938 C 75.015625 429.945312 75.882812 427.699219 76.804688 425.472656 C 77.726562 423.25 78.703125 421.050781 79.734375 418.875 C 80.765625 416.695312 81.851562 414.546875 82.984375 412.421875 C 84.121094 410.300781 85.308594 408.207031 86.546875 406.140625 C 87.785156 404.074219 89.074219 402.042969 90.414062 400.039062 C 91.753906 398.039062 93.140625 396.070312 94.574219 394.136719 C 96.007812 392.203125 97.492188 390.304688 99.019531 388.441406 C 100.546875 386.582031 102.117188 384.757812 103.738281 382.976562 C 105.355469 381.191406 107.015625 379.445312 108.714844 377.746094 C 110.417969 376.042969 112.164062 374.382812 113.945312 372.765625 C 115.730469 371.148438 117.554688 369.574219 119.414062 368.046875 C 121.277344 366.519531 123.175781 365.035156 125.109375 363.601562 C 127.042969 362.167969 129.011719 360.78125 131.011719 359.441406 C 133.011719 358.101562 135.046875 356.8125 137.113281 355.574219 C 139.175781 354.335938 141.269531 353.148438 143.394531 352.011719 C 145.519531 350.875 147.667969 349.792969 149.84375 348.761719 C 152.019531 347.730469 154.222656 346.753906 156.445312 345.832031 C 158.667969 344.910156 160.914062 344.042969 163.183594 343.230469 C 165.449219 342.414062 167.734375 341.660156 170.039062 340.957031 C 172.34375 340.257812 174.660156 339.613281 176.996094 339.027344 C 179.332031 338.441406 181.679688 337.910156 184.042969 337.4375 C 186.402344 336.964844 188.777344 336.554688 191.15625 336.199219 C 193.539062 335.84375 195.929688 335.542969 198.324219 335.304688 C 200.71875 335.066406 203.121094 334.886719 205.527344 334.765625 C 207.929688 334.648438 210.339844 334.585938 212.746094 334.582031 C 407.945312 342.527344 407.890625 621.054688 212.746094 628.972656 C 210.335938 628.96875 207.929688 628.90625 205.523438 628.785156 C 203.121094 628.664062 200.71875 628.484375 198.324219 628.246094 C 195.925781 628.007812 193.539062 627.710938 191.15625 627.355469 C 188.773438 627 186.402344 626.585938 184.042969 626.117188 C 181.679688 625.644531 179.332031 625.113281 176.996094 624.527344 C 174.660156 623.941406 172.339844 623.296875 170.035156 622.59375 C 167.734375 621.894531 165.449219 621.136719 163.179688 620.324219 C 160.914062 619.511719 158.667969 618.644531 156.445312 617.722656 C 154.21875 616.800781 152.019531 615.820312 149.84375 614.792969 C 147.667969 613.761719 145.515625 612.675781 143.394531 611.542969 C 141.269531 610.40625 139.175781 609.21875 137.113281 607.976562 C 135.046875 606.738281 133.011719 605.449219 131.011719 604.113281 C 129.007812 602.773438 127.042969 601.386719 125.105469 599.953125 C 123.171875 598.515625 121.277344 597.035156 119.414062 595.507812 C 117.554688 593.980469 115.730469 592.40625 113.945312 590.789062 C 112.164062 589.171875 110.417969 587.511719 108.714844 585.808594 C 107.011719 584.105469 105.351562 582.363281 103.734375 580.578125 C 102.117188 578.792969 100.546875 576.972656 99.019531 575.109375 C 97.488281 573.25 96.007812 571.351562 94.574219 569.417969 C 93.140625 567.484375 91.753906 565.515625 90.414062 563.511719 C 89.074219 561.511719 87.785156 559.476562 86.546875 557.414062 C 85.308594 555.347656 84.121094 553.253906 82.984375 551.128906 C 81.847656 549.007812 80.765625 546.855469 79.734375 544.679688 C 78.703125 542.503906 77.726562 540.304688 76.804688 538.078125 C 75.882812 535.855469 75.015625 533.609375 74.203125 531.34375 C 73.390625 529.074219 72.632812 526.789062 71.929688 524.484375 C 71.230469 522.183594 70.585938 519.863281 70 517.527344 C 69.414062 515.191406 68.882812 512.84375 68.410156 510.480469 C 67.941406 508.121094 67.527344 505.75 67.171875 503.367188 C 66.816406 500.984375 66.519531 498.59375 66.28125 496.199219 C 66.042969 493.804688 65.863281 491.402344 65.742188 488.996094 C 65.621094 486.59375 65.558594 484.183594 65.554688 481.777344 Z M 331.742188 690.089844 C 331.222656 689.902344 330.691406 689.742188 330.15625 689.609375 C 329.617188 689.472656 329.074219 689.367188 328.527344 689.289062 C 327.976562 689.210938 327.425781 689.160156 326.871094 689.136719 C 326.320312 689.113281 325.765625 689.121094 325.210938 689.15625 C 324.660156 689.191406 324.109375 689.253906 323.5625 689.34375 C 323.015625 689.433594 322.476562 689.550781 321.941406 689.695312 C 321.40625 689.84375 320.882812 690.015625 320.363281 690.214844 C 319.847656 690.414062 319.34375 690.640625 318.847656 690.890625 C 318.355469 691.144531 317.875 691.417969 317.410156 691.71875 C 316.945312 692.019531 316.496094 692.34375 316.0625 692.6875 C 315.628906 693.035156 315.214844 693.402344 314.820312 693.789062 C 314.425781 694.179688 314.050781 694.585938 313.699219 695.011719 C 313.34375 695.441406 313.015625 695.882812 312.707031 696.34375 C 312.398438 696.804688 312.113281 697.28125 311.855469 697.769531 C 311.597656 698.257812 311.363281 698.761719 311.15625 699.273438 C 310.945312 699.789062 310.765625 700.3125 310.609375 700.84375 L 298.324219 744.273438 L 254.765625 656.085938 C 261.921875 654.355469 268.945312 652.191406 275.835938 649.59375 C 282.722656 646.996094 289.425781 643.984375 295.945312 640.558594 C 302.460938 637.136719 308.742188 633.324219 314.789062 629.121094 C 320.835938 624.921875 326.601562 620.367188 332.085938 615.453125 L 377.207031 706.894531 Z M 777.808594 603.117188 C 777.84375 604.398438 777.851562 605.679688 777.824219 606.957031 C 777.800781 608.238281 777.742188 609.519531 777.65625 610.796875 C 777.566406 612.074219 777.449219 613.347656 777.296875 614.621094 C 777.148438 615.890625 776.964844 617.160156 776.753906 618.421875 C 776.542969 619.6875 776.296875 620.941406 776.023438 622.195312 C 775.75 623.445312 775.445312 624.6875 775.113281 625.925781 C 774.777344 627.160156 774.410156 628.386719 774.015625 629.605469 C 773.621094 630.824219 773.199219 632.03125 772.742188 633.230469 C 772.289062 634.429688 771.804688 635.613281 771.292969 636.789062 C 770.78125 637.960938 770.242188 639.121094 769.671875 640.269531 C 769.101562 641.417969 768.507812 642.550781 767.882812 643.667969 C 767.257812 644.785156 766.605469 645.886719 765.929688 646.976562 C 765.25 648.0625 764.546875 649.128906 763.8125 650.183594 C 763.082031 651.234375 762.328125 652.265625 761.546875 653.28125 C 760.765625 654.296875 759.960938 655.292969 759.128906 656.265625 C 758.300781 657.242188 757.445312 658.195312 756.570312 659.128906 C 755.691406 660.0625 754.792969 660.976562 753.871094 661.863281 C 752.949219 662.753906 752.007812 663.621094 751.042969 664.464844 C 750.078125 665.308594 749.097656 666.125 748.09375 666.921875 C 747.089844 667.714844 746.066406 668.488281 745.023438 669.230469 C 743.980469 669.976562 742.921875 670.695312 741.84375 671.390625 C 740.769531 672.082031 739.675781 672.75 738.566406 673.390625 C 737.457031 674.027344 736.332031 674.640625 735.191406 675.226562 C 734.054688 675.808594 732.898438 676.367188 731.734375 676.894531 C 730.566406 677.421875 729.386719 677.921875 728.195312 678.390625 C 727.003906 678.863281 725.804688 679.304688 724.589844 679.714844 C 723.378906 680.125 722.15625 680.507812 720.921875 680.859375 C 719.691406 681.210938 718.453125 681.53125 717.207031 681.824219 C 715.957031 682.113281 714.703125 682.375 713.445312 682.605469 C 712.183594 682.835938 710.921875 683.035156 709.652344 683.199219 C 708.382812 683.367188 707.109375 683.503906 705.832031 683.609375 C 704.554688 683.714844 703.277344 683.789062 701.996094 683.832031 L 486.441406 683.832031 C 489.953125 680.761719 493.296875 677.511719 496.460938 674.082031 C 499.628906 670.648438 502.601562 667.0625 505.382812 663.3125 C 508.164062 659.5625 510.738281 655.675781 513.101562 651.648438 C 515.464844 647.625 517.605469 643.484375 519.527344 639.230469 C 521.449219 634.976562 523.132812 630.628906 524.589844 626.195312 C 526.042969 621.757812 527.253906 617.257812 528.226562 612.691406 C 529.199219 608.125 529.921875 603.519531 530.398438 598.878906 C 530.875 594.234375 531.101562 589.578125 531.082031 584.910156 L 531.082031 550.984375 L 777.808594 550.984375 Z M 300.992188 446.511719 L 250.019531 439.101562 L 227.226562 392.910156 C 227.039062 392.597656 226.847656 392.289062 226.640625 391.988281 C 226.4375 391.6875 226.222656 391.394531 226 391.109375 C 225.777344 390.820312 225.542969 390.542969 225.300781 390.269531 C 225.0625 390 224.8125 389.734375 224.550781 389.480469 C 224.292969 389.222656 224.027344 388.976562 223.75 388.738281 C 223.476562 388.5 223.195312 388.273438 222.90625 388.050781 C 222.613281 387.832031 222.320312 387.621094 222.015625 387.421875 C 221.710938 387.222656 221.402344 387.03125 221.085938 386.851562 C 220.769531 386.667969 220.449219 386.5 220.125 386.339844 C 219.796875 386.179688 219.464844 386.03125 219.128906 385.894531 C 218.792969 385.753906 218.453125 385.628906 218.105469 385.511719 C 217.761719 385.394531 217.414062 385.292969 217.0625 385.199219 C 216.710938 385.105469 216.355469 385.023438 216 384.953125 C 215.644531 384.882812 215.285156 384.824219 214.925781 384.777344 C 214.5625 384.730469 214.203125 384.695312 213.839844 384.671875 C 213.476562 384.648438 213.113281 384.636719 212.75 384.636719 C 212.386719 384.636719 212.023438 384.648438 211.660156 384.671875 C 211.296875 384.695312 210.933594 384.730469 210.574219 384.777344 C 210.214844 384.824219 209.855469 384.882812 209.5 384.953125 C 209.140625 385.023438 208.789062 385.105469 208.4375 385.199219 C 208.085938 385.292969 207.738281 385.394531 207.390625 385.511719 C 207.046875 385.628906 206.707031 385.753906 206.371094 385.894531 C 206.035156 386.03125 205.703125 386.179688 205.375 386.339844 C 205.050781 386.5 204.726562 386.667969 204.414062 386.851562 C 204.097656 387.03125 203.789062 387.222656 203.484375 387.421875 C 203.179688 387.621094 202.882812 387.832031 202.59375 388.050781 C 202.304688 388.273438 202.023438 388.5 201.746094 388.738281 C 201.472656 388.976562 201.207031 389.222656 200.949219 389.480469 C 200.6875 389.734375 200.4375 390 200.195312 390.269531 C 199.957031 390.542969 199.722656 390.820312 199.5 391.109375 C 199.277344 391.394531 199.0625 391.6875 198.855469 391.988281 C 198.652344 392.289062 198.457031 392.597656 198.273438 392.910156 L 175.472656 439.101562 L 124.488281 446.511719 C 123 446.726562 121.566406 447.140625 120.191406 447.757812 C 118.816406 448.375 117.554688 449.167969 116.402344 450.136719 C 115.25 451.109375 114.253906 452.21875 113.410156 453.464844 C 112.570312 454.714844 111.917969 456.054688 111.449219 457.488281 C 110.984375 458.921875 110.726562 460.390625 110.671875 461.894531 C 110.617188 463.398438 110.769531 464.882812 111.128906 466.347656 C 111.492188 467.808594 112.046875 469.191406 112.792969 470.5 C 113.542969 471.808594 114.457031 472.984375 115.535156 474.035156 L 152.425781 509.996094 L 143.714844 560.789062 C 143.460938 562.273438 143.414062 563.765625 143.578125 565.261719 C 143.742188 566.757812 144.109375 568.203125 144.675781 569.597656 C 145.242188 570.992188 145.992188 572.28125 146.921875 573.46875 C 147.851562 574.652344 148.921875 575.6875 150.140625 576.574219 C 151.359375 577.457031 152.675781 578.15625 154.089844 578.675781 C 155.507812 579.191406 156.964844 579.503906 158.464844 579.613281 C 159.96875 579.71875 161.457031 579.621094 162.929688 579.3125 C 164.402344 579.003906 165.808594 578.5 167.140625 577.800781 L 212.746094 553.820312 L 258.34375 577.800781 C 259.675781 578.5 261.078125 579.003906 262.554688 579.3125 C 264.027344 579.621094 265.515625 579.71875 267.015625 579.613281 C 268.519531 579.503906 269.976562 579.191406 271.390625 578.675781 C 272.804688 578.160156 274.121094 577.457031 275.339844 576.574219 C 276.558594 575.6875 277.632812 574.652344 278.5625 573.46875 C 279.492188 572.28125 280.238281 570.992188 280.808594 569.597656 C 281.375 568.203125 281.742188 566.757812 281.90625 565.261719 C 282.066406 563.765625 282.023438 562.273438 281.769531 560.789062 L 273.058594 509.996094 L 309.949219 474.035156 C 311.003906 472.976562 311.898438 471.792969 312.632812 470.488281 C 313.363281 469.179688 313.902344 467.796875 314.25 466.339844 C 314.597656 464.886719 314.742188 463.410156 314.683594 461.914062 C 314.625 460.417969 314.363281 458.957031 313.898438 457.53125 C 313.4375 456.109375 312.789062 454.773438 311.957031 453.527344 C 311.125 452.285156 310.140625 451.175781 309 450.203125 C 307.863281 449.230469 306.613281 448.429688 305.253906 447.804688 C 303.890625 447.175781 302.472656 446.746094 300.992188 446.511719 Z M 244.441406 492.8125 C 234.617188 501.027344 243.414062 521.652344 244.417969 534.003906 C 233.171875 529.363281 216.074219 514.4375 205.234375 521.300781 L 181.066406 534.003906 L 185.6875 507.09375 C 188.785156 494.660156 169.609375 483.207031 161.496094 473.753906 L 188.507812 469.828125 C 201.296875 468.960938 206.292969 447.101562 212.746094 436.53125 L 224.828125 461 C 229.613281 472.882812 251.847656 470.867188 263.988281 473.753906 Z M 244.441406 492.8125 " fill-opacity="1" fill-rule="nonzero"/></g></svg>