<svg xmlns="http://www.w3.org/2000/svg" xmlns:xlink="http://www.w3.org/1999/xlink" width="1080" zoomAndPan="magnify" viewBox="0 0 810 809.999993" height="1080" preserveAspectRatio="xMidYMid meet" version="1.0"><defs><clipPath id="bdb3d997c3"><path d="M 0 0 L 798.75 0 L 798.75 798.75 L 0 798.75 Z M 0 0 " clip-rule="nonzero"/></clipPath></defs><path fill="#f1a20b" d="M 433.125 320.449219 C 433.398438 320.054688 433.613281 319.628906 433.769531 319.175781 C 433.925781 318.722656 434.015625 318.257812 434.042969 317.78125 C 434.074219 317.300781 434.035156 316.828125 433.9375 316.359375 C 433.835938 315.894531 433.671875 315.445312 433.449219 315.023438 C 433.226562 314.597656 432.949219 314.214844 432.621094 313.863281 C 432.292969 313.515625 431.921875 313.21875 431.511719 312.972656 C 431.101562 312.726562 430.664062 312.539062 430.203125 312.410156 C 429.742188 312.285156 429.269531 312.222656 428.789062 312.222656 L 410.566406 312.222656 C 409.699219 312.226562 408.878906 312.433594 408.113281 312.84375 C 407.347656 313.253906 406.71875 313.820312 406.230469 314.539062 C 396.617188 328.597656 386.9375 339.445312 377.097656 350.445312 C 366.492188 336.390625 357.09375 320.773438 352.84375 302.625 C 348.152344 282.121094 339.585938 268.972656 326.734375 262.605469 C 326.558594 262.523438 326.417969 262.402344 326.316406 262.238281 C 326.214844 262.070312 326.164062 261.894531 326.171875 261.699219 C 326.175781 261.507812 326.234375 261.332031 326.347656 261.171875 C 326.457031 261.015625 326.601562 260.898438 326.78125 260.828125 C 348.503906 251.675781 361.308594 232.804688 361.308594 209.476562 C 361.308594 193.277344 355.460938 179.207031 344.859375 169.871094 C 331.90625 158.164062 313.488281 152.945312 285.144531 152.945312 C 270.871094 152.945312 248.175781 154.265625 238.257812 154.890625 C 237.929688 154.910156 237.605469 154.960938 237.285156 155.042969 C 236.964844 155.125 236.65625 155.238281 236.355469 155.378906 C 236.058594 155.519531 235.773438 155.6875 235.507812 155.882812 C 235.238281 156.074219 234.992188 156.292969 234.769531 156.535156 C 234.542969 156.777344 234.339844 157.035156 234.164062 157.316406 C 233.988281 157.59375 233.839844 157.886719 233.71875 158.195312 C 233.597656 158.5 233.503906 158.816406 233.445312 159.140625 C 233.382812 159.464844 233.351562 159.792969 233.351562 160.125 L 233.351562 354.859375 C 233.351562 355.203125 233.386719 355.546875 233.453125 355.882812 C 233.523438 356.222656 233.621094 356.550781 233.753906 356.867188 C 233.886719 357.183594 234.046875 357.488281 234.238281 357.773438 C 234.429688 358.0625 234.648438 358.324219 234.890625 358.570312 C 235.136719 358.8125 235.402344 359.03125 235.6875 359.222656 C 235.976562 359.414062 236.277344 359.574219 236.597656 359.707031 C 236.914062 359.835938 237.242188 359.9375 237.582031 360.003906 C 237.917969 360.070312 238.261719 360.105469 238.605469 360.105469 L 257.328125 360.105469 C 257.671875 360.105469 258.011719 360.070312 258.351562 360.003906 C 258.6875 359.9375 259.015625 359.835938 259.335938 359.707031 C 259.652344 359.574219 259.957031 359.414062 260.242188 359.222656 C 260.53125 359.03125 260.796875 358.8125 261.039062 358.570312 C 261.28125 358.324219 261.5 358.0625 261.691406 357.773438 C 261.882812 357.488281 262.046875 357.1875 262.179688 356.867188 C 262.308594 356.550781 262.410156 356.222656 262.476562 355.882812 C 262.542969 355.546875 262.578125 355.203125 262.578125 354.859375 L 262.578125 274.863281 C 262.578125 274.527344 262.644531 274.203125 262.773438 273.890625 C 262.902344 273.578125 263.085938 273.304688 263.324219 273.066406 C 263.5625 272.824219 263.839844 272.640625 264.152344 272.511719 C 264.464844 272.382812 264.789062 272.320312 265.125 272.320312 L 285.691406 272.320312 C 308.753906 273.191406 315.863281 284.054688 324.902344 310.523438 C 334.234375 337.839844 345.28125 353.726562 359.203125 370.882812 C 348.464844 383.261719 336.675781 395.703125 325.953125 407.3125 C 325.605469 407.6875 325.320312 408.105469 325.097656 408.5625 C 324.875 409.019531 324.722656 409.5 324.636719 410.003906 C 324.554688 410.503906 324.542969 411.007812 324.605469 411.515625 C 324.671875 412.019531 324.804688 412.507812 325.007812 412.972656 C 325.214844 413.4375 325.480469 413.867188 325.8125 414.253906 C 326.140625 414.644531 326.519531 414.976562 326.945312 415.253906 C 327.375 415.53125 327.832031 415.742188 328.320312 415.886719 C 328.808594 416.03125 329.308594 416.101562 329.816406 416.101562 L 350.5 416.101562 C 351.21875 416.105469 351.910156 415.964844 352.570312 415.683594 C 353.230469 415.398438 353.804688 414.996094 354.300781 414.476562 C 357.929688 410.636719 367.070312 400.976562 376.457031 390.664062 C 385.835938 400.957031 395.09375 410.644531 398.761719 414.488281 C 399.253906 415.007812 399.828125 415.40625 400.488281 415.6875 C 401.144531 415.964844 401.832031 416.105469 402.546875 416.101562 L 423.230469 416.101562 C 423.742188 416.105469 424.238281 416.03125 424.730469 415.886719 C 425.21875 415.746094 425.675781 415.535156 426.101562 415.253906 C 426.53125 414.976562 426.910156 414.644531 427.238281 414.257812 C 427.570312 413.867188 427.835938 413.441406 428.042969 412.976562 C 428.246094 412.507812 428.382812 412.023438 428.445312 411.519531 C 428.511719 411.011719 428.5 410.507812 428.417969 410.007812 C 428.335938 409.503906 428.179688 409.023438 427.957031 408.566406 C 427.734375 408.105469 427.453125 407.691406 427.105469 407.316406 C 416.382812 395.703125 404.59375 383.261719 393.851562 370.882812 C 394.503906 370.097656 395.152344 369.320312 395.75 368.582031 C 406.359375 355.511719 421.078125 337.730469 433.125 320.449219 Z M 287.855469 249.449219 L 265.953125 249.449219 C 265.507812 249.449219 265.078125 249.363281 264.664062 249.191406 C 264.25 249.019531 263.886719 248.777344 263.570312 248.460938 C 263.25 248.144531 263.007812 247.78125 262.835938 247.367188 C 262.664062 246.953125 262.578125 246.523438 262.578125 246.078125 L 262.578125 180.9375 C 262.574219 180.542969 262.640625 180.160156 262.773438 179.789062 C 262.90625 179.417969 263.097656 179.082031 263.347656 178.777344 C 263.601562 178.476562 263.894531 178.222656 264.238281 178.023438 C 264.578125 177.824219 264.941406 177.691406 265.328125 177.621094 C 272.488281 176.53125 279.691406 176.027344 286.933594 176.117188 C 307.53125 176.339844 332.089844 182.828125 332.089844 212.480469 C 332.089844 234.9375 314.726562 249.449219 287.855469 249.449219 Z M 253.351562 477.703125 C 252.417969 477.703125 251.488281 477.75 250.5625 477.84375 C 249.632812 477.9375 248.710938 478.074219 247.796875 478.257812 C 246.882812 478.441406 245.980469 478.667969 245.085938 478.9375 C 244.195312 479.210938 243.316406 479.527344 242.457031 479.882812 C 241.59375 480.242188 240.753906 480.640625 239.933594 481.082031 C 239.109375 481.523438 238.3125 482.003906 237.535156 482.519531 C 236.761719 483.039062 236.015625 483.597656 235.292969 484.1875 C 234.574219 484.78125 233.882812 485.40625 233.226562 486.066406 C 232.566406 486.726562 231.941406 487.417969 231.351562 488.140625 C 230.757812 488.863281 230.207031 489.609375 229.6875 490.386719 C 229.171875 491.164062 228.691406 491.960938 228.253906 492.785156 C 227.816406 493.609375 227.417969 494.449219 227.0625 495.3125 C 226.703125 496.175781 226.390625 497.050781 226.121094 497.945312 C 225.851562 498.835938 225.625 499.742188 225.445312 500.65625 C 225.265625 501.570312 225.128906 502.492188 225.039062 503.421875 C 224.949219 504.347656 224.902344 505.28125 224.902344 506.210938 C 224.902344 507.144531 224.949219 508.074219 225.042969 509.003906 C 225.136719 509.933594 225.273438 510.851562 225.457031 511.769531 C 225.636719 512.683594 225.863281 513.585938 226.136719 514.476562 C 226.40625 515.371094 226.722656 516.246094 227.082031 517.109375 C 227.4375 517.96875 227.835938 518.8125 228.277344 519.632812 C 228.71875 520.457031 229.195312 521.253906 229.714844 522.03125 C 230.234375 522.804688 230.789062 523.554688 231.382812 524.273438 C 231.972656 524.996094 232.601562 525.683594 233.261719 526.34375 C 233.921875 527.003906 234.609375 527.628906 235.332031 528.21875 C 236.054688 528.808594 236.800781 529.363281 237.578125 529.882812 C 238.355469 530.398438 239.152344 530.878906 239.976562 531.316406 C 240.800781 531.757812 241.640625 532.15625 242.503906 532.511719 C 243.363281 532.867188 244.242188 533.179688 245.136719 533.449219 C 246.027344 533.722656 246.929688 533.945312 247.847656 534.128906 C 248.761719 534.308594 249.683594 534.445312 250.609375 534.535156 C 251.539062 534.628906 252.46875 534.671875 253.402344 534.671875 C 254.335938 534.671875 255.265625 534.625 256.195312 534.535156 C 257.121094 534.441406 258.042969 534.304688 258.957031 534.121094 C 259.871094 533.941406 260.777344 533.714844 261.667969 533.441406 C 262.5625 533.171875 263.4375 532.859375 264.300781 532.5 C 265.160156 532.144531 266.003906 531.746094 266.824219 531.304688 C 267.648438 530.863281 268.445312 530.386719 269.222656 529.867188 C 269.996094 529.347656 270.746094 528.792969 271.464844 528.199219 C 272.1875 527.609375 272.878906 526.984375 273.535156 526.324219 C 274.195312 525.664062 274.820312 524.972656 275.414062 524.253906 C 276.003906 523.53125 276.558594 522.78125 277.078125 522.007812 C 277.59375 521.230469 278.074219 520.433594 278.511719 519.609375 C 278.953125 518.789062 279.351562 517.945312 279.707031 517.082031 C 280.0625 516.222656 280.378906 515.34375 280.648438 514.453125 C 280.917969 513.558594 281.144531 512.65625 281.328125 511.742188 C 281.507812 510.824219 281.644531 509.90625 281.738281 508.976562 C 281.828125 508.046875 281.875 507.117188 281.875 506.183594 C 281.871094 505.25 281.824219 504.320312 281.730469 503.390625 C 281.636719 502.464844 281.5 501.542969 281.316406 500.628906 C 281.132812 499.710938 280.90625 498.808594 280.632812 497.914062 C 280.359375 497.023438 280.046875 496.144531 279.6875 495.285156 C 279.328125 494.421875 278.929688 493.582031 278.488281 492.757812 C 278.046875 491.9375 277.566406 491.136719 277.050781 490.359375 C 276.53125 489.585938 275.972656 488.835938 275.382812 488.117188 C 274.789062 487.394531 274.164062 486.707031 273.503906 486.046875 C 272.839844 485.386719 272.152344 484.761719 271.429688 484.171875 C 270.707031 483.578125 269.957031 483.023438 269.183594 482.503906 C 268.40625 481.988281 267.605469 481.507812 266.785156 481.070312 C 265.960938 480.628906 265.117188 480.230469 264.253906 479.875 C 263.394531 479.515625 262.515625 479.203125 261.625 478.933594 C 260.730469 478.660156 259.824219 478.433594 258.910156 478.253906 C 257.996094 478.070312 257.074219 477.933594 256.144531 477.839844 C 255.214844 477.75 254.285156 477.703125 253.351562 477.703125 Z M 253.351562 517.648438 C 252.601562 517.644531 251.855469 517.570312 251.117188 517.421875 C 250.378906 517.277344 249.664062 517.058594 248.96875 516.769531 C 248.273438 516.480469 247.617188 516.128906 246.992188 515.707031 C 246.367188 515.289062 245.789062 514.8125 245.257812 514.28125 C 244.726562 513.75 244.25 513.171875 243.832031 512.542969 C 243.414062 511.917969 243.0625 511.257812 242.777344 510.5625 C 242.488281 509.867188 242.273438 509.152344 242.125 508.414062 C 241.980469 507.675781 241.90625 506.929688 241.90625 506.179688 C 241.910156 505.425781 241.984375 504.683594 242.128906 503.945312 C 242.277344 503.207031 242.496094 502.492188 242.78125 501.796875 C 243.070312 501.101562 243.425781 500.441406 243.84375 499.816406 C 244.261719 499.191406 244.734375 498.613281 245.269531 498.082031 C 245.800781 497.550781 246.378906 497.074219 247.003906 496.65625 C 247.628906 496.238281 248.289062 495.886719 248.984375 495.597656 C 249.679688 495.3125 250.398438 495.09375 251.136719 494.949219 C 251.871094 494.800781 252.617188 494.730469 253.371094 494.730469 C 254.121094 494.730469 254.867188 494.800781 255.605469 494.949219 C 256.34375 495.097656 257.058594 495.3125 257.753906 495.601562 C 258.449219 495.890625 259.109375 496.242188 259.734375 496.660156 C 260.359375 497.078125 260.9375 497.554688 261.46875 498.085938 C 262 498.617188 262.476562 499.195312 262.894531 499.820312 C 263.3125 500.445312 263.664062 501.105469 263.953125 501.800781 C 264.242188 502.496094 264.457031 503.210938 264.605469 503.949219 C 264.753906 504.6875 264.824219 505.433594 264.824219 506.183594 C 264.824219 506.9375 264.75 507.683594 264.601562 508.421875 C 264.453125 509.160156 264.234375 509.875 263.945312 510.570312 C 263.65625 511.265625 263.304688 511.925781 262.886719 512.550781 C 262.464844 513.175781 261.992188 513.753906 261.457031 514.289062 C 260.925781 514.820312 260.347656 515.292969 259.722656 515.710938 C 259.09375 516.128906 258.433594 516.484375 257.738281 516.773438 C 257.042969 517.058594 256.328125 517.277344 255.589844 517.425781 C 254.851562 517.570312 254.105469 517.644531 253.351562 517.648438 Z M 253.351562 571.484375 C 252.417969 571.488281 251.488281 571.535156 250.5625 571.625 C 249.632812 571.71875 248.710938 571.855469 247.796875 572.039062 C 246.882812 572.222656 245.980469 572.449219 245.085938 572.722656 C 244.195312 572.992188 243.320312 573.308594 242.457031 573.667969 C 241.597656 574.023438 240.753906 574.421875 239.933594 574.863281 C 239.109375 575.304688 238.3125 575.785156 237.535156 576.304688 C 236.761719 576.820312 236.015625 577.378906 235.292969 577.96875 C 234.574219 578.5625 233.882812 579.1875 233.226562 579.847656 C 232.566406 580.507812 231.941406 581.199219 231.351562 581.921875 C 230.761719 582.644531 230.207031 583.390625 229.6875 584.167969 C 229.171875 584.945312 228.691406 585.742188 228.253906 586.566406 C 227.816406 587.390625 227.417969 588.230469 227.0625 589.09375 C 226.707031 589.957031 226.390625 590.832031 226.121094 591.726562 C 225.851562 592.617188 225.628906 593.523438 225.445312 594.4375 C 225.265625 595.351562 225.128906 596.273438 225.039062 597.203125 C 224.949219 598.128906 224.902344 599.0625 224.902344 599.992188 C 224.902344 600.925781 224.949219 601.855469 225.042969 602.785156 C 225.136719 603.710938 225.273438 604.632812 225.453125 605.546875 C 225.636719 606.464844 225.863281 607.367188 226.136719 608.257812 C 226.40625 609.152344 226.722656 610.027344 227.078125 610.890625 C 227.4375 611.75 227.835938 612.59375 228.277344 613.414062 C 228.714844 614.238281 229.195312 615.035156 229.714844 615.8125 C 230.234375 616.585938 230.789062 617.332031 231.378906 618.054688 C 231.972656 618.773438 232.597656 619.464844 233.257812 620.125 C 233.917969 620.78125 234.609375 621.40625 235.328125 622 C 236.050781 622.589844 236.800781 623.144531 237.574219 623.664062 C 238.351562 624.179688 239.148438 624.660156 239.972656 625.097656 C 240.796875 625.539062 241.636719 625.9375 242.5 626.292969 C 243.363281 626.648438 244.238281 626.960938 245.132812 627.230469 C 246.023438 627.503906 246.929688 627.730469 247.84375 627.910156 C 248.757812 628.089844 249.679688 628.226562 250.605469 628.320312 C 251.535156 628.410156 252.464844 628.457031 253.398438 628.457031 C 254.332031 628.453125 255.261719 628.410156 256.191406 628.316406 C 257.117188 628.226562 258.039062 628.089844 258.953125 627.90625 C 259.867188 627.722656 260.773438 627.496094 261.664062 627.226562 C 262.558594 626.957031 263.433594 626.640625 264.296875 626.285156 C 265.15625 625.925781 266 625.527344 266.820312 625.089844 C 267.644531 624.648438 268.441406 624.171875 269.21875 623.652344 C 269.992188 623.132812 270.742188 622.578125 271.460938 621.988281 C 272.183594 621.394531 272.875 620.769531 273.53125 620.109375 C 274.191406 619.449219 274.816406 618.761719 275.410156 618.039062 C 276 617.316406 276.554688 616.570312 277.074219 615.792969 C 277.59375 615.019531 278.070312 614.21875 278.511719 613.398438 C 278.949219 612.574219 279.347656 611.730469 279.707031 610.871094 C 280.0625 610.007812 280.375 609.132812 280.648438 608.238281 C 280.917969 607.347656 281.144531 606.445312 281.324219 605.527344 C 281.507812 604.613281 281.644531 603.691406 281.734375 602.765625 C 281.828125 601.835938 281.875 600.90625 281.875 599.972656 C 281.871094 599.039062 281.824219 598.109375 281.730469 597.179688 C 281.636719 596.25 281.5 595.328125 281.316406 594.414062 C 281.132812 593.5 280.90625 592.597656 280.632812 591.703125 C 280.359375 590.8125 280.046875 589.933594 279.6875 589.070312 C 279.328125 588.210938 278.929688 587.367188 278.488281 586.546875 C 278.046875 585.722656 277.570312 584.921875 277.050781 584.148438 C 276.53125 583.371094 275.972656 582.625 275.382812 581.902344 C 274.789062 581.183594 274.164062 580.492188 273.503906 579.832031 C 272.84375 579.171875 272.152344 578.546875 271.429688 577.957031 C 270.707031 577.363281 269.960938 576.808594 269.183594 576.289062 C 268.40625 575.773438 267.605469 575.292969 266.785156 574.851562 C 265.960938 574.414062 265.117188 574.015625 264.257812 573.65625 C 263.394531 573.300781 262.515625 572.988281 261.625 572.714844 C 260.730469 572.445312 259.828125 572.21875 258.910156 572.035156 C 257.996094 571.851562 257.074219 571.714844 256.144531 571.625 C 255.214844 571.53125 254.285156 571.484375 253.351562 571.484375 Z M 253.351562 611.429688 C 252.601562 611.429688 251.855469 611.355469 251.117188 611.207031 C 250.378906 611.058594 249.664062 610.839844 248.96875 610.550781 C 248.273438 610.261719 247.613281 609.910156 246.988281 609.492188 C 246.363281 609.070312 245.785156 608.597656 245.253906 608.0625 C 244.722656 607.53125 244.25 606.953125 243.832031 606.328125 C 243.414062 605.699219 243.0625 605.039062 242.777344 604.34375 C 242.488281 603.648438 242.273438 602.933594 242.125 602.195312 C 241.980469 601.457031 241.90625 600.710938 241.90625 599.960938 C 241.910156 599.207031 241.984375 598.460938 242.128906 597.726562 C 242.277344 596.988281 242.496094 596.269531 242.785156 595.574219 C 243.074219 594.882812 243.425781 594.222656 243.84375 593.597656 C 244.261719 592.972656 244.738281 592.394531 245.269531 591.863281 C 245.800781 591.328125 246.382812 590.855469 247.007812 590.4375 C 247.632812 590.019531 248.292969 589.667969 248.988281 589.378906 C 249.683594 589.09375 250.402344 588.875 251.136719 588.730469 C 251.875 588.582031 252.621094 588.511719 253.375 588.511719 C 254.125 588.511719 254.871094 588.585938 255.609375 588.734375 C 256.347656 588.878906 257.0625 589.097656 257.757812 589.386719 C 258.453125 589.675781 259.113281 590.027344 259.738281 590.445312 C 260.363281 590.863281 260.941406 591.339844 261.472656 591.871094 C 262.003906 592.402344 262.480469 592.980469 262.898438 593.605469 C 263.316406 594.234375 263.667969 594.894531 263.953125 595.589844 C 264.242188 596.285156 264.460938 597 264.605469 597.738281 C 264.753906 598.476562 264.824219 599.21875 264.824219 599.972656 C 264.824219 600.726562 264.75 601.46875 264.601562 602.207031 C 264.453125 602.945312 264.234375 603.664062 263.945312 604.359375 C 263.65625 605.050781 263.304688 605.710938 262.886719 606.335938 C 262.464844 606.964844 261.992188 607.542969 261.457031 608.074219 C 260.925781 608.605469 260.347656 609.078125 259.71875 609.496094 C 259.09375 609.914062 258.433594 610.269531 257.738281 610.554688 C 257.042969 610.84375 256.328125 611.0625 255.589844 611.207031 C 254.851562 611.355469 254.105469 611.429688 253.351562 611.429688 Z M 253.351562 611.429688 " fill-opacity="1" fill-rule="nonzero"/><g clip-path="url(#bdb3d997c3)"><path fill="#003629" d="M 790.226562 80.03125 L 651.15625 80.03125 L 651.15625 8.511719 C 651.15625 7.953125 651.101562 7.398438 650.992188 6.851562 C 650.882812 6.304688 650.71875 5.769531 650.503906 5.253906 C 650.289062 4.738281 650.027344 4.246094 649.714844 3.78125 C 649.40625 3.316406 649.050781 2.886719 648.65625 2.492188 C 648.261719 2.097656 647.832031 1.742188 647.363281 1.433594 C 646.898438 1.121094 646.410156 0.859375 645.890625 0.648438 C 645.375 0.433594 644.84375 0.273438 644.292969 0.164062 C 643.746094 0.0546875 643.191406 0 642.632812 0 L 8.523438 0 C 7.964844 0 7.410156 0.0546875 6.863281 0.164062 C 6.3125 0.273438 5.78125 0.433594 5.265625 0.648438 C 4.746094 0.859375 4.253906 1.121094 3.789062 1.433594 C 3.324219 1.742188 2.894531 2.097656 2.5 2.492188 C 2.101562 2.886719 1.75 3.316406 1.4375 3.78125 C 1.128906 4.246094 0.863281 4.738281 0.652344 5.253906 C 0.4375 5.769531 0.273438 6.304688 0.164062 6.851562 C 0.0546875 7.398438 0 7.953125 0 8.511719 L 0 710.207031 C 0 710.765625 0.0546875 711.320312 0.164062 711.867188 C 0.273438 712.414062 0.4375 712.949219 0.652344 713.464844 C 0.863281 713.980469 1.128906 714.472656 1.4375 714.9375 C 1.75 715.402344 2.101562 715.832031 2.5 716.226562 C 2.894531 716.621094 3.324219 716.976562 3.789062 717.285156 C 4.253906 717.597656 4.746094 717.859375 5.265625 718.070312 C 5.78125 718.285156 6.3125 718.445312 6.863281 718.554688 C 7.410156 718.664062 7.964844 718.71875 8.523438 718.71875 L 147.59375 718.71875 L 147.59375 790.238281 C 147.59375 790.796875 147.648438 791.351562 147.757812 791.898438 C 147.867188 792.445312 148.03125 792.980469 148.246094 793.496094 C 148.460938 794.011719 148.722656 794.503906 149.035156 794.96875 C 149.34375 795.433594 149.699219 795.863281 150.09375 796.257812 C 150.488281 796.652344 150.917969 797.007812 151.386719 797.316406 C 151.851562 797.628906 152.339844 797.890625 152.859375 798.101562 C 153.375 798.316406 153.90625 798.476562 154.457031 798.585938 C 155.003906 798.695312 155.558594 798.75 156.117188 798.75 L 790.226562 798.75 C 790.785156 798.75 791.339844 798.695312 791.886719 798.585938 C 792.4375 798.476562 792.96875 798.316406 793.484375 798.105469 C 794.003906 797.890625 794.496094 797.628906 794.960938 797.316406 C 795.425781 797.007812 795.855469 796.652344 796.25 796.257812 C 796.648438 795.863281 797 795.433594 797.3125 794.96875 C 797.621094 794.503906 797.886719 794.011719 798.097656 793.496094 C 798.3125 792.980469 798.476562 792.449219 798.585938 791.898438 C 798.695312 791.351562 798.75 790.796875 798.75 790.238281 L 798.75 88.546875 C 798.75 87.984375 798.695312 87.433594 798.585938 86.882812 C 798.476562 86.335938 798.3125 85.800781 798.097656 85.285156 C 797.886719 84.769531 797.621094 84.277344 797.3125 83.8125 C 797 83.347656 796.648438 82.917969 796.25 82.523438 C 795.855469 82.128906 795.425781 81.773438 794.960938 81.464844 C 794.496094 81.152344 794.003906 80.890625 793.488281 80.679688 C 792.96875 80.464844 792.4375 80.304688 791.886719 80.195312 C 791.339844 80.085938 790.785156 80.03125 790.226562 80.03125 Z M 17.046875 701.691406 L 17.046875 17.027344 L 634.109375 17.027344 L 634.109375 80.03125 L 156.117188 80.03125 C 155.558594 80.03125 155.003906 80.085938 154.457031 80.195312 C 153.90625 80.304688 153.375 80.464844 152.859375 80.679688 C 152.339844 80.890625 151.851562 81.152344 151.386719 81.464844 C 150.917969 81.773438 150.488281 82.128906 150.09375 82.523438 C 149.699219 82.917969 149.34375 83.347656 149.035156 83.8125 C 148.722656 84.277344 148.460938 84.769531 148.246094 85.285156 C 148.03125 85.800781 147.867188 86.335938 147.757812 86.882812 C 147.648438 87.429688 147.59375 87.984375 147.59375 88.542969 L 147.59375 701.691406 Z M 781.703125 781.722656 L 164.640625 781.722656 L 164.640625 97.058594 L 781.703125 97.058594 Z M 467.972656 187.976562 C 467.972656 187.417969 468.027344 186.863281 468.136719 186.316406 C 468.246094 185.765625 468.410156 185.234375 468.625 184.71875 C 468.835938 184.199219 469.101562 183.710938 469.410156 183.246094 C 469.722656 182.78125 470.074219 182.351562 470.472656 181.953125 C 470.867188 181.558594 471.296875 181.207031 471.761719 180.894531 C 472.226562 180.585938 472.71875 180.324219 473.234375 180.109375 C 473.753906 179.894531 474.285156 179.734375 474.835938 179.625 C 475.382812 179.515625 475.9375 179.464844 476.496094 179.464844 L 626.207031 179.464844 C 626.765625 179.464844 627.320312 179.519531 627.867188 179.625 C 628.417969 179.734375 628.949219 179.898438 629.464844 180.109375 C 629.980469 180.324219 630.472656 180.585938 630.9375 180.898438 C 631.402344 181.207031 631.832031 181.5625 632.226562 181.957031 C 632.621094 182.351562 632.976562 182.78125 633.285156 183.246094 C 633.597656 183.710938 633.859375 184.203125 634.074219 184.71875 C 634.285156 185.234375 634.449219 185.765625 634.558594 186.316406 C 634.667969 186.863281 634.722656 187.417969 634.722656 187.976562 C 634.722656 188.535156 634.667969 189.089844 634.558594 189.636719 C 634.449219 190.183594 634.285156 190.71875 634.074219 191.234375 C 633.859375 191.75 633.597656 192.242188 633.285156 192.707031 C 632.976562 193.171875 632.621094 193.601562 632.226562 193.996094 C 631.832031 194.390625 631.402344 194.742188 630.9375 195.054688 C 630.472656 195.363281 629.980469 195.628906 629.464844 195.839844 C 628.949219 196.054688 628.417969 196.214844 627.867188 196.324219 C 627.320312 196.433594 626.765625 196.488281 626.207031 196.488281 L 476.496094 196.488281 C 475.9375 196.488281 475.382812 196.433594 474.835938 196.328125 C 474.285156 196.21875 473.753906 196.054688 473.234375 195.84375 C 472.71875 195.628906 472.226562 195.367188 471.761719 195.054688 C 471.296875 194.746094 470.867188 194.394531 470.472656 194 C 470.074219 193.601562 469.722656 193.171875 469.410156 192.707031 C 469.101562 192.242188 468.835938 191.753906 468.625 191.234375 C 468.410156 190.71875 468.246094 190.1875 468.136719 189.636719 C 468.027344 189.089844 467.972656 188.535156 467.972656 187.976562 Z M 318.933594 506.183594 C 318.933594 505.625 318.988281 505.070312 319.097656 504.523438 C 319.207031 503.976562 319.367188 503.441406 319.582031 502.925781 C 319.796875 502.410156 320.058594 501.917969 320.371094 501.453125 C 320.683594 500.988281 321.035156 500.558594 321.429688 500.164062 C 321.828125 499.769531 322.257812 499.414062 322.722656 499.105469 C 323.1875 498.792969 323.679688 498.53125 324.195312 498.316406 C 324.710938 498.105469 325.246094 497.941406 325.792969 497.835938 C 326.34375 497.726562 326.898438 497.671875 327.457031 497.671875 L 411.414062 497.671875 C 411.972656 497.671875 412.527344 497.726562 413.074219 497.835938 C 413.621094 497.945312 414.152344 498.105469 414.671875 498.320312 C 415.1875 498.535156 415.675781 498.796875 416.140625 499.105469 C 416.605469 499.417969 417.039062 499.769531 417.433594 500.164062 C 417.828125 500.558594 418.179688 500.992188 418.492188 501.457031 C 418.800781 501.921875 419.0625 502.410156 419.277344 502.925781 C 419.492188 503.445312 419.652344 503.976562 419.761719 504.523438 C 419.871094 505.074219 419.925781 505.625 419.925781 506.183594 C 419.925781 506.742188 419.871094 507.296875 419.761719 507.84375 C 419.652344 508.394531 419.492188 508.925781 419.277344 509.441406 C 419.0625 509.960938 418.800781 510.449219 418.492188 510.914062 C 418.179688 511.378906 417.828125 511.808594 417.433594 512.203125 C 417.039062 512.601562 416.605469 512.953125 416.140625 513.261719 C 415.679688 513.574219 415.1875 513.835938 414.671875 514.050781 C 414.15625 514.265625 413.621094 514.425781 413.074219 514.535156 C 412.527344 514.644531 411.972656 514.699219 411.414062 514.699219 L 327.457031 514.699219 C 326.894531 514.699219 326.34375 514.644531 325.792969 514.535156 C 325.246094 514.425781 324.710938 514.265625 324.195312 514.050781 C 323.679688 513.835938 323.1875 513.574219 322.722656 513.265625 C 322.257812 512.953125 321.828125 512.601562 321.429688 512.207031 C 321.035156 511.8125 320.683594 511.382812 320.371094 510.917969 C 320.058594 510.453125 319.796875 509.960938 319.582031 509.445312 C 319.367188 508.925781 319.207031 508.394531 319.097656 507.847656 C 318.988281 507.296875 318.933594 506.746094 318.933594 506.183594 Z M 452.089844 506.183594 C 452.089844 505.625 452.144531 505.070312 452.253906 504.523438 C 452.363281 503.976562 452.527344 503.441406 452.742188 502.925781 C 452.957031 502.410156 453.21875 501.917969 453.527344 501.453125 C 453.839844 500.988281 454.195312 500.558594 454.589844 500.164062 C 454.984375 499.769531 455.414062 499.414062 455.878906 499.105469 C 456.347656 498.792969 456.835938 498.53125 457.355469 498.316406 C 457.871094 498.105469 458.402344 497.941406 458.953125 497.835938 C 459.5 497.726562 460.054688 497.671875 460.613281 497.671875 L 712.992188 497.671875 C 713.550781 497.671875 714.105469 497.726562 714.652344 497.835938 C 715.203125 497.945312 715.734375 498.105469 716.25 498.320312 C 716.765625 498.535156 717.257812 498.796875 717.722656 499.105469 C 718.1875 499.417969 718.617188 499.769531 719.011719 500.164062 C 719.40625 500.558594 719.761719 500.992188 720.070312 501.457031 C 720.382812 501.921875 720.644531 502.410156 720.855469 502.925781 C 721.070312 503.445312 721.234375 503.976562 721.34375 504.523438 C 721.449219 505.074219 721.503906 505.625 721.503906 506.183594 C 721.503906 506.742188 721.449219 507.296875 721.34375 507.84375 C 721.234375 508.394531 721.070312 508.925781 720.855469 509.441406 C 720.644531 509.960938 720.382812 510.449219 720.070312 510.914062 C 719.761719 511.378906 719.40625 511.808594 719.011719 512.203125 C 718.617188 512.601562 718.1875 512.953125 717.722656 513.261719 C 717.257812 513.574219 716.765625 513.835938 716.25 514.050781 C 715.734375 514.265625 715.203125 514.425781 714.652344 514.535156 C 714.105469 514.644531 713.550781 514.699219 712.992188 514.699219 L 460.613281 514.699219 C 460.054688 514.699219 459.5 514.644531 458.953125 514.535156 C 458.402344 514.425781 457.871094 514.265625 457.355469 514.050781 C 456.835938 513.835938 456.347656 513.574219 455.878906 513.265625 C 455.414062 512.953125 454.984375 512.601562 454.589844 512.207031 C 454.195312 511.8125 453.839844 511.382812 453.527344 510.917969 C 453.21875 510.453125 452.957031 509.960938 452.742188 509.445312 C 452.527344 508.925781 452.363281 508.394531 452.253906 507.847656 C 452.144531 507.296875 452.089844 506.746094 452.089844 506.183594 Z M 467.972656 237.589844 C 467.972656 237.027344 468.027344 236.476562 468.136719 235.925781 C 468.246094 235.378906 468.410156 234.847656 468.625 234.328125 C 468.835938 233.8125 469.101562 233.320312 469.410156 232.855469 C 469.722656 232.390625 470.074219 231.960938 470.472656 231.566406 C 470.867188 231.171875 471.296875 230.820312 471.761719 230.507812 C 472.226562 230.199219 472.71875 229.9375 473.234375 229.722656 C 473.753906 229.507812 474.285156 229.347656 474.835938 229.238281 C 475.382812 229.128906 475.9375 229.074219 476.496094 229.074219 L 712.992188 229.074219 C 713.554688 229.074219 714.109375 229.125 714.660156 229.230469 C 715.207031 229.339844 715.742188 229.5 716.261719 229.710938 C 716.78125 229.925781 717.273438 230.1875 717.742188 230.496094 C 718.207031 230.808594 718.640625 231.160156 719.039062 231.554688 C 719.433594 231.949219 719.789062 232.382812 720.101562 232.847656 C 720.414062 233.3125 720.675781 233.804688 720.894531 234.320312 C 721.109375 234.839844 721.269531 235.375 721.378906 235.921875 C 721.488281 236.472656 721.542969 237.027344 721.542969 237.589844 C 721.542969 238.148438 721.488281 238.703125 721.378906 239.253906 C 721.269531 239.804688 721.109375 240.335938 720.894531 240.855469 C 720.675781 241.375 720.414062 241.863281 720.101562 242.332031 C 719.789062 242.796875 719.433594 243.226562 719.039062 243.621094 C 718.640625 244.019531 718.207031 244.371094 717.742188 244.679688 C 717.273438 244.992188 716.78125 245.253906 716.261719 245.464844 C 715.742188 245.679688 715.207031 245.835938 714.660156 245.945312 C 714.109375 246.050781 713.554688 246.105469 712.992188 246.101562 L 476.496094 246.101562 C 475.9375 246.101562 475.382812 246.046875 474.835938 245.9375 C 474.285156 245.832031 473.753906 245.667969 473.234375 245.457031 C 472.71875 245.242188 472.226562 244.980469 471.761719 244.667969 C 471.296875 244.359375 470.867188 244.003906 470.472656 243.609375 C 470.074219 243.214844 469.722656 242.785156 469.410156 242.320312 C 469.101562 241.855469 468.835938 241.363281 468.625 240.847656 C 468.410156 240.332031 468.246094 239.800781 468.136719 239.25 C 468.027344 238.703125 467.972656 238.148438 467.972656 237.589844 Z M 467.972656 323.769531 C 467.972656 323.210938 468.027344 322.660156 468.136719 322.109375 C 468.246094 321.5625 468.410156 321.027344 468.625 320.511719 C 468.835938 319.996094 469.101562 319.503906 469.410156 319.039062 C 469.722656 318.574219 470.074219 318.144531 470.472656 317.75 C 470.867188 317.355469 471.296875 317 471.761719 316.691406 C 472.226562 316.378906 472.71875 316.117188 473.234375 315.90625 C 473.753906 315.691406 474.285156 315.53125 474.835938 315.421875 C 475.382812 315.3125 475.9375 315.257812 476.496094 315.257812 L 712.992188 315.257812 C 713.550781 315.257812 714.105469 315.3125 714.652344 315.421875 C 715.203125 315.53125 715.734375 315.691406 716.25 315.90625 C 716.765625 316.121094 717.257812 316.382812 717.722656 316.691406 C 718.1875 317.003906 718.617188 317.355469 719.011719 317.75 C 719.40625 318.148438 719.761719 318.578125 720.070312 319.042969 C 720.382812 319.507812 720.644531 319.996094 720.855469 320.511719 C 721.070312 321.03125 721.234375 321.5625 721.339844 322.109375 C 721.449219 322.660156 721.503906 323.210938 721.503906 323.773438 C 721.503906 324.332031 721.449219 324.882812 721.339844 325.433594 C 721.234375 325.980469 721.070312 326.511719 720.855469 327.027344 C 720.644531 327.546875 720.382812 328.035156 720.070312 328.5 C 719.761719 328.964844 719.40625 329.394531 719.011719 329.792969 C 718.617188 330.1875 718.1875 330.539062 717.722656 330.851562 C 717.257812 331.160156 716.765625 331.421875 716.25 331.636719 C 715.734375 331.851562 715.203125 332.011719 714.652344 332.121094 C 714.105469 332.230469 713.550781 332.285156 712.992188 332.285156 L 476.496094 332.285156 C 475.9375 332.285156 475.382812 332.230469 474.835938 332.121094 C 474.285156 332.011719 473.753906 331.851562 473.234375 331.636719 C 472.71875 331.425781 472.226562 331.164062 471.761719 330.851562 C 471.296875 330.542969 470.867188 330.1875 470.472656 329.792969 C 470.074219 329.398438 469.722656 328.96875 469.410156 328.503906 C 469.101562 328.039062 468.835938 327.546875 468.625 327.03125 C 468.410156 326.515625 468.246094 325.980469 468.136719 325.433594 C 468.027344 324.882812 467.972656 324.332031 467.972656 323.769531 Z M 467.972656 365.828125 C 467.972656 365.269531 468.027344 364.714844 468.136719 364.167969 C 468.246094 363.621094 468.410156 363.085938 468.625 362.570312 C 468.835938 362.054688 469.101562 361.5625 469.410156 361.097656 C 469.722656 360.632812 470.074219 360.203125 470.472656 359.808594 C 470.867188 359.414062 471.296875 359.058594 471.761719 358.75 C 472.226562 358.4375 472.71875 358.175781 473.234375 357.964844 C 473.753906 357.75 474.285156 357.589844 474.835938 357.480469 C 475.382812 357.371094 475.9375 357.316406 476.496094 357.316406 L 712.992188 357.316406 C 713.550781 357.316406 714.105469 357.371094 714.652344 357.480469 C 715.203125 357.589844 715.734375 357.75 716.25 357.964844 C 716.765625 358.179688 717.257812 358.441406 717.722656 358.75 C 718.1875 359.0625 718.617188 359.414062 719.011719 359.808594 C 719.40625 360.207031 719.761719 360.636719 720.070312 361.101562 C 720.382812 361.566406 720.644531 362.054688 720.855469 362.570312 C 721.070312 363.089844 721.234375 363.621094 721.339844 364.167969 C 721.449219 364.71875 721.503906 365.269531 721.503906 365.828125 C 721.503906 366.390625 721.449219 366.941406 721.339844 367.492188 C 721.234375 368.039062 721.070312 368.570312 720.855469 369.085938 C 720.644531 369.605469 720.382812 370.09375 720.070312 370.558594 C 719.761719 371.023438 719.40625 371.453125 719.011719 371.847656 C 718.617188 372.246094 718.1875 372.597656 717.722656 372.90625 C 717.257812 373.21875 716.765625 373.480469 716.25 373.695312 C 715.734375 373.910156 715.203125 374.070312 714.652344 374.179688 C 714.105469 374.289062 713.550781 374.34375 712.992188 374.34375 L 476.496094 374.34375 C 475.9375 374.34375 475.382812 374.289062 474.835938 374.179688 C 474.285156 374.070312 473.753906 373.910156 473.234375 373.695312 C 472.71875 373.484375 472.226562 373.21875 471.761719 372.910156 C 471.296875 372.601562 470.867188 372.246094 470.472656 371.851562 C 470.074219 371.457031 469.722656 371.027344 469.410156 370.5625 C 469.101562 370.097656 468.835938 369.605469 468.625 369.089844 C 468.410156 368.574219 468.246094 368.039062 468.136719 367.492188 C 468.027344 366.941406 467.972656 366.390625 467.972656 365.828125 Z M 467.972656 407.886719 C 467.972656 407.328125 468.027344 406.773438 468.136719 406.226562 C 468.246094 405.679688 468.410156 405.144531 468.625 404.628906 C 468.835938 404.113281 469.101562 403.621094 469.410156 403.15625 C 469.722656 402.691406 470.074219 402.261719 470.472656 401.867188 C 470.867188 401.472656 471.296875 401.117188 471.761719 400.808594 C 472.226562 400.496094 472.71875 400.234375 473.234375 400.023438 C 473.753906 399.808594 474.285156 399.648438 474.835938 399.539062 C 475.382812 399.429688 475.9375 399.375 476.496094 399.375 L 712.992188 399.375 C 713.550781 399.375 714.105469 399.429688 714.652344 399.539062 C 715.203125 399.648438 715.734375 399.808594 716.25 400.023438 C 716.765625 400.238281 717.257812 400.5 717.722656 400.808594 C 718.1875 401.121094 718.617188 401.472656 719.011719 401.867188 C 719.40625 402.265625 719.761719 402.695312 720.070312 403.160156 C 720.382812 403.625 720.644531 404.113281 720.855469 404.628906 C 721.070312 405.148438 721.234375 405.679688 721.34375 406.226562 C 721.449219 406.777344 721.503906 407.328125 721.503906 407.886719 C 721.503906 408.445312 721.449219 409 721.34375 409.550781 C 721.234375 410.097656 721.070312 410.628906 720.855469 411.144531 C 720.644531 411.664062 720.382812 412.152344 720.070312 412.617188 C 719.761719 413.082031 719.40625 413.511719 719.011719 413.90625 C 718.617188 414.304688 718.1875 414.65625 717.722656 414.964844 C 717.257812 415.277344 716.765625 415.539062 716.25 415.753906 C 715.734375 415.96875 715.203125 416.128906 714.652344 416.238281 C 714.105469 416.347656 713.550781 416.402344 712.992188 416.402344 L 476.496094 416.402344 C 475.9375 416.402344 475.382812 416.347656 474.835938 416.238281 C 474.285156 416.128906 473.753906 415.96875 473.234375 415.753906 C 472.71875 415.539062 472.226562 415.277344 471.761719 414.96875 C 471.296875 414.65625 470.867188 414.304688 470.472656 413.910156 C 470.074219 413.515625 469.722656 413.085938 469.410156 412.621094 C 469.101562 412.15625 468.835938 411.664062 468.625 411.148438 C 468.410156 410.632812 468.246094 410.097656 468.136719 409.550781 C 468.027344 409 467.972656 408.449219 467.972656 407.886719 Z M 318.933594 599.972656 C 318.933594 599.414062 318.988281 598.859375 319.097656 598.3125 C 319.207031 597.761719 319.367188 597.230469 319.582031 596.714844 C 319.796875 596.195312 320.058594 595.707031 320.371094 595.242188 C 320.683594 594.777344 321.035156 594.347656 321.429688 593.953125 C 321.828125 593.554688 322.257812 593.203125 322.722656 592.894531 C 323.1875 592.582031 323.679688 592.320312 324.195312 592.105469 C 324.710938 591.894531 325.246094 591.730469 325.792969 591.621094 C 326.34375 591.515625 326.898438 591.460938 327.457031 591.460938 L 532.34375 591.460938 C 532.90625 591.457031 533.460938 591.511719 534.011719 591.617188 C 534.5625 591.726562 535.09375 591.886719 535.613281 592.097656 C 536.132812 592.3125 536.625 592.574219 537.089844 592.882812 C 537.558594 593.195312 537.988281 593.546875 538.386719 593.941406 C 538.785156 594.335938 539.136719 594.769531 539.449219 595.234375 C 539.761719 595.699219 540.027344 596.191406 540.242188 596.707031 C 540.457031 597.226562 540.617188 597.757812 540.726562 598.308594 C 540.835938 598.859375 540.890625 599.414062 540.890625 599.972656 C 540.890625 600.535156 540.835938 601.089844 540.726562 601.636719 C 540.617188 602.1875 540.457031 602.722656 540.242188 603.238281 C 540.027344 603.757812 539.761719 604.246094 539.449219 604.714844 C 539.136719 605.179688 538.785156 605.609375 538.386719 606.003906 C 537.988281 606.398438 537.558594 606.753906 537.089844 607.0625 C 536.625 607.375 536.132812 607.636719 535.613281 607.847656 C 535.09375 608.0625 534.5625 608.222656 534.011719 608.328125 C 533.460938 608.4375 532.90625 608.488281 532.34375 608.488281 L 327.457031 608.488281 C 326.894531 608.488281 326.34375 608.433594 325.792969 608.324219 C 325.246094 608.214844 324.710938 608.054688 324.195312 607.839844 C 323.679688 607.625 323.1875 607.363281 322.722656 607.054688 C 322.257812 606.742188 321.828125 606.390625 321.429688 605.996094 C 321.035156 605.597656 320.683594 605.167969 320.371094 604.703125 C 320.058594 604.238281 319.796875 603.75 319.582031 603.234375 C 319.367188 602.714844 319.207031 602.183594 319.097656 601.636719 C 318.988281 601.085938 318.933594 600.53125 318.933594 599.972656 Z M 712.992188 608.488281 L 586.339844 608.488281 C 585.777344 608.488281 585.222656 608.4375 584.671875 608.328125 C 584.121094 608.222656 583.589844 608.0625 583.070312 607.847656 C 582.550781 607.636719 582.058594 607.375 581.59375 607.0625 C 581.125 606.753906 580.695312 606.398438 580.296875 606.003906 C 579.898438 605.609375 579.546875 605.179688 579.234375 604.714844 C 578.921875 604.246094 578.65625 603.757812 578.441406 603.238281 C 578.226562 602.722656 578.066406 602.1875 577.957031 601.636719 C 577.847656 601.089844 577.792969 600.535156 577.792969 599.972656 C 577.792969 599.414062 577.847656 598.859375 577.957031 598.308594 C 578.066406 597.757812 578.226562 597.226562 578.441406 596.707031 C 578.65625 596.191406 578.921875 595.699219 579.234375 595.234375 C 579.546875 594.769531 579.898438 594.335938 580.296875 593.941406 C 580.695312 593.546875 581.125 593.195312 581.59375 592.882812 C 582.058594 592.574219 582.550781 592.3125 583.070312 592.097656 C 583.589844 591.886719 584.121094 591.726562 584.671875 591.617188 C 585.222656 591.511719 585.777344 591.457031 586.339844 591.460938 L 712.992188 591.460938 C 713.554688 591.457031 714.109375 591.511719 714.65625 591.617188 C 715.207031 591.726562 715.742188 591.886719 716.261719 592.097656 C 716.777344 592.3125 717.269531 592.574219 717.738281 592.882812 C 718.203125 593.195312 718.636719 593.546875 719.035156 593.941406 C 719.429688 594.335938 719.785156 594.769531 720.097656 595.234375 C 720.410156 595.699219 720.671875 596.191406 720.886719 596.707031 C 721.101562 597.226562 721.265625 597.757812 721.375 598.308594 C 721.484375 598.859375 721.539062 599.414062 721.539062 599.972656 C 721.539062 600.535156 721.484375 601.089844 721.375 601.636719 C 721.265625 602.1875 721.101562 602.722656 720.886719 603.238281 C 720.671875 603.757812 720.410156 604.246094 720.097656 604.714844 C 719.785156 605.179688 719.429688 605.609375 719.035156 606.003906 C 718.636719 606.398438 718.203125 606.753906 717.738281 607.0625 C 717.269531 607.375 716.777344 607.636719 716.261719 607.847656 C 715.742188 608.0625 715.207031 608.222656 714.65625 608.328125 C 714.109375 608.4375 713.554688 608.488281 712.992188 608.488281 Z M 689.03125 719.332031 C 688.695312 718.582031 688.265625 717.898438 687.734375 717.273438 C 687.203125 716.652344 686.59375 716.117188 685.90625 715.667969 C 685.222656 715.222656 684.488281 714.882812 683.703125 714.644531 C 682.917969 714.410156 682.117188 714.292969 681.296875 714.289062 C 673.527344 714.6875 665.753906 714.996094 657.972656 715.21875 C 652.796875 715.367188 647.617188 715.492188 642.4375 715.453125 C 640.292969 715.4375 638.152344 715.386719 636.011719 715.277344 C 635.09375 715.230469 634.914062 715.355469 634.890625 715.425781 C 634.695312 715.160156 634.464844 714.933594 634.191406 714.75 C 625.023438 707.402344 621.914062 693.609375 607.964844 693.253906 C 593.023438 692.871094 587.082031 708.679688 579.574219 718.5625 C 577.867188 720.808594 575.515625 723.777344 572.8125 724.882812 C 572.707031 724.925781 571.917969 724.824219 571.433594 724.804688 C 571.421875 724.761719 571.421875 724.730469 571.40625 724.675781 C 570.484375 721.914062 569.765625 719.105469 569.253906 716.238281 C 568.042969 706.488281 568.46875 696.5625 567.789062 686.773438 C 567.191406 678.140625 566.363281 668.433594 561.234375 661.121094 C 555.558594 653.03125 545.761719 651.605469 536.90625 655.027344 C 521.140625 661.121094 512.453125 677.375 505.125 691.539062 C 497.214844 706.828125 487.964844 725.773438 469.292969 729.1875 C 458.519531 731.160156 463.082031 747.570312 473.824219 745.605469 C 490.902344 742.484375 502.917969 729.164062 511.65625 715.046875 C 519.199219 702.863281 524.035156 688.335938 533.855469 677.675781 C 537.226562 674.234375 541.191406 671.726562 545.746094 670.160156 C 546.574219 669.878906 546.292969 669.742188 546.769531 670.25 C 546.882812 670.371094 546.96875 670.464844 547.042969 670.542969 C 547.105469 670.75 548.125 672.269531 548.242188 672.550781 C 550.652344 678.503906 550.929688 688.722656 551.191406 696.363281 C 551.71875 711.816406 549.871094 743.175781 573.257812 742 C 589.414062 741.1875 594.585938 723.339844 603.640625 713.324219 C 607.257812 709.320312 608.550781 709.980469 611.808594 714.066406 C 615.84375 719.125 618.953125 724.933594 624.441406 728.660156 C 632.90625 734.402344 645.320312 732.566406 655 732.328125 C 661.636719 732.164062 668.273438 731.90625 674.90625 731.605469 C 676.609375 737.894531 678.738281 744.980469 682.929688 748.84375 C 690.070312 755.425781 697.300781 749.136719 699.5 741.871094 C 703.265625 729.414062 704.949219 715.949219 720.4375 716.675781 C 731.40625 717.1875 731.378906 700.160156 720.4375 699.648438 C 705.542969 698.949219 695.113281 707.269531 689.03125 719.332031 Z M 547.324219 670.8125 L 547.347656 670.835938 Z M 571.464844 725.117188 C 571.464844 725.097656 571.464844 725.078125 571.464844 725.058594 C 571.558594 725.089844 571.671875 725.128906 571.800781 725.171875 C 571.695312 725.128906 571.582031 725.109375 571.464844 725.117188 Z M 682.929688 737.882812 C 682.558594 739.308594 682.585938 738.078125 682.929688 737.882812 Z M 662.410156 680.085938 C 663.058594 680.085938 663.703125 680.148438 664.335938 680.273438 C 664.972656 680.402344 665.589844 680.589844 666.1875 680.835938 C 666.785156 681.085938 667.355469 681.386719 667.894531 681.75 C 668.433594 682.109375 668.933594 682.519531 669.390625 682.976562 C 669.847656 683.433594 670.257812 683.933594 670.617188 684.472656 C 670.976562 685.011719 671.28125 685.578125 671.53125 686.179688 C 671.777344 686.777344 671.964844 687.394531 672.089844 688.03125 C 672.21875 688.664062 672.28125 689.308594 672.28125 689.953125 C 672.28125 690.601562 672.21875 691.246094 672.089844 691.878906 C 671.964844 692.515625 671.777344 693.132812 671.53125 693.730469 C 671.28125 694.332031 670.976562 694.898438 670.617188 695.4375 C 670.257812 695.976562 669.847656 696.476562 669.390625 696.933594 C 668.933594 697.390625 668.433594 697.800781 667.894531 698.160156 C 667.355469 698.519531 666.789062 698.824219 666.1875 699.074219 C 665.589844 699.320312 664.972656 699.507812 664.335938 699.636719 C 663.703125 699.761719 663.058594 699.824219 662.410156 699.824219 C 661.761719 699.824219 661.121094 699.761719 660.484375 699.636719 C 659.851562 699.507812 659.234375 699.320312 658.632812 699.074219 C 658.035156 698.824219 657.46875 698.519531 656.929688 698.160156 C 656.390625 697.800781 655.890625 697.390625 655.433594 696.933594 C 654.972656 696.476562 654.566406 695.976562 654.203125 695.4375 C 653.84375 694.898438 653.539062 694.332031 653.292969 693.730469 C 653.046875 693.132812 652.859375 692.515625 652.730469 691.878906 C 652.605469 691.246094 652.542969 690.601562 652.542969 689.953125 C 652.542969 689.308594 652.605469 688.664062 652.730469 688.03125 C 652.859375 687.394531 653.046875 686.777344 653.292969 686.179688 C 653.539062 685.578125 653.84375 685.011719 654.207031 684.472656 C 654.566406 683.933594 654.972656 683.433594 655.433594 682.976562 C 655.890625 682.519531 656.390625 682.109375 656.929688 681.75 C 657.46875 681.386719 658.035156 681.085938 658.632812 680.835938 C 659.234375 680.589844 659.851562 680.402344 660.484375 680.273438 C 661.121094 680.148438 661.761719 680.085938 662.410156 680.085938 Z M 662.410156 680.085938 " fill-opacity="1" fill-rule="nonzero"/></g></svg>