<svg xmlns="http://www.w3.org/2000/svg" xmlns:xlink="http://www.w3.org/1999/xlink" width="1080" zoomAndPan="magnify" viewBox="0 0 810 809.999993" height="1080" preserveAspectRatio="xMidYMid meet" version="1.0"><defs><clipPath id="c1ce8faa54"><path d="M 15.160156 61 L 572 61 L 572 618 L 15.160156 618 Z M 15.160156 61 " clip-rule="nonzero"/></clipPath><clipPath id="8d0dc26f2f"><path d="M 470.445312 206 L 789.988281 206 L 789.988281 526 L 470.445312 526 Z M 470.445312 206 " clip-rule="nonzero"/></clipPath><clipPath id="16a32ec542"><path d="M 100 124 L 596 124 L 596 791.40625 L 100 791.40625 Z M 100 124 " clip-rule="nonzero"/></clipPath><clipPath id="67acc6283e"><path d="M 110 22.65625 L 586 22.65625 L 586 143 L 110 143 Z M 110 22.65625 " clip-rule="nonzero"/></clipPath></defs><g clip-path="url(#c1ce8faa54)"><path fill="#f1a20b" d="M 571.90625 339.550781 C 571.90625 493.121094 447.417969 617.613281 293.855469 617.613281 C 140.292969 617.613281 15.804688 493.121094 15.804688 339.550781 C 15.804688 185.980469 140.292969 61.488281 293.855469 61.488281 C 447.417969 61.488281 571.90625 185.980469 571.90625 339.550781 " fill-opacity="1" fill-rule="nonzero"/></g><g clip-path="url(#8d0dc26f2f)"><path fill="#72c305" d="M 630.382812 525.785156 C 542.230469 525.785156 470.773438 454.320312 470.773438 366.164062 C 470.773438 278.007812 542.230469 206.539062 630.382812 206.539062 C 718.539062 206.539062 789.996094 278.007812 789.996094 366.164062 C 789.996094 454.320312 718.539062 525.785156 630.382812 525.785156 " fill-opacity="1" fill-rule="nonzero"/></g><path fill="#003629" d="M 394.980469 435.300781 C 390.339844 435.300781 386.445312 431.664062 386.1875 426.96875 C 383.3125 375.636719 372.144531 329.777344 348.25 272.695312 C 324.355469 329.742188 313.195312 375.578125 310.3125 426.851562 C 310.039062 431.722656 306.074219 435.386719 301.003906 435.164062 C 296.140625 434.890625 292.425781 430.71875 292.699219 425.855469 C 296.011719 366.824219 309.773438 314.96875 340.183594 246.886719 C 341.617188 243.707031 344.777344 241.65625 348.25 241.65625 C 351.726562 241.65625 354.882812 243.707031 356.304688 246.886719 C 386.746094 315.003906 400.5 366.894531 403.800781 425.972656 C 404.078125 430.855469 400.363281 435.019531 395.480469 435.285156 C 395.308594 435.292969 395.144531 435.300781 394.980469 435.300781 " fill-opacity="1" fill-rule="nonzero"/><path fill="#003629" d="M 438.867188 616.617188 C 438.121094 616.617188 437.355469 616.523438 436.609375 616.316406 C 397.03125 605.859375 347.941406 564.101562 342.476562 559.363281 C 338.785156 556.179688 338.382812 550.605469 341.574219 546.925781 C 344.777344 543.21875 350.359375 542.847656 354.015625 546.007812 C 369.484375 559.390625 399.125 581.835938 425.335938 593.511719 C 420.960938 580.796875 415.703125 569.152344 409.816406 559.246094 C 407.328125 555.058594 408.699219 549.644531 412.894531 547.148438 C 417.109375 544.667969 422.496094 546.03125 424.984375 550.226562 C 434.171875 565.679688 441.929688 584.804688 447.402344 605.523438 C 448.199219 608.570312 447.324219 611.804688 445.113281 614.027344 C 443.429688 615.699219 441.183594 616.617188 438.867188 616.617188 " fill-opacity="1" fill-rule="nonzero"/><path fill="#003629" d="M 257.632812 616.617188 C 255.316406 616.617188 253.0625 615.699219 251.386719 614.027344 C 249.175781 611.804688 248.292969 608.570312 249.097656 605.523438 C 254.453125 585.25 262.277344 566.144531 271.722656 550.246094 C 274.21875 546.058594 279.613281 544.683594 283.820312 547.171875 C 288.015625 549.667969 289.386719 555.074219 286.898438 559.269531 C 280.875 569.402344 275.558594 581.027344 271.214844 593.496094 C 297.410156 581.800781 327.015625 559.390625 342.476562 546.007812 C 346.140625 542.847656 351.726562 543.21875 354.917969 546.925781 C 358.117188 550.605469 357.714844 556.179688 354.015625 559.363281 C 348.558594 564.101562 299.46875 605.859375 259.890625 616.316406 C 259.144531 616.523438 258.378906 616.617188 257.632812 616.617188 " fill-opacity="1" fill-rule="nonzero"/><path fill="#003629" d="M 417.390625 563.570312 C 412.90625 563.570312 409.070312 560.164062 408.625 555.597656 C 408.144531 550.742188 411.679688 546.425781 416.535156 545.945312 C 446.019531 543.046875 475.859375 535.5625 505.503906 523.65625 C 490.660156 517.703125 475.792969 512.835938 461.070312 509.136719 C 456.351562 507.953125 453.476562 503.160156 454.660156 498.429688 C 455.828125 493.695312 460.605469 490.742188 465.367188 492.023438 C 487.28125 497.523438 509.5 505.476562 531.410156 515.660156 C 534.527344 517.101562 536.515625 520.222656 536.515625 523.65625 C 536.515625 527.085938 534.527344 530.210938 531.410156 531.660156 C 493.9375 549.09375 455.871094 559.8125 418.265625 563.515625 C 417.976562 563.542969 417.675781 563.570312 417.390625 563.570312 " fill-opacity="1" fill-rule="nonzero"/><path fill="#003629" d="M 279.324219 563.585938 C 279.039062 563.585938 278.738281 563.570312 278.441406 563.542969 C 240.777344 559.84375 202.65625 549.121094 165.105469 531.660156 C 162 530.210938 160.007812 527.085938 160.007812 523.65625 C 160.007812 520.222656 162 517.101562 165.121094 515.660156 C 187.035156 505.476562 209.238281 497.523438 231.132812 492.03125 C 235.851562 490.753906 240.664062 493.710938 241.832031 498.449219 C 243.023438 503.167969 240.148438 507.964844 235.421875 509.148438 C 220.734375 512.84375 205.859375 517.703125 191.03125 523.65625 C 220.734375 535.589844 250.632812 543.082031 280.171875 545.972656 C 285.019531 546.453125 288.570312 550.769531 288.089844 555.625 C 287.644531 560.179688 283.808594 563.585938 279.324219 563.585938 " fill-opacity="1" fill-rule="nonzero"/><path fill="#003629" d="M 457.464844 518.164062 C 455.734375 518.164062 453.972656 517.648438 452.445312 516.585938 C 448.441406 513.804688 447.445312 508.304688 450.226562 504.300781 C 474.511719 469.269531 488.773438 424.824219 492.710938 372.035156 C 456.023438 381.023438 424.296875 394.511719 398.257812 412.203125 C 394.210938 414.921875 388.738281 413.902344 386 409.871094 C 383.253906 405.828125 384.300781 400.347656 388.332031 397.609375 C 418.917969 376.820312 456.617188 361.53125 500.363281 352.179688 C 503.046875 351.605469 505.835938 352.292969 507.914062 354.066406 C 509.996094 355.835938 511.148438 358.46875 511.035156 361.195312 C 508.289062 422.484375 492.710938 474.011719 464.722656 514.363281 C 463.015625 516.835938 460.261719 518.164062 457.464844 518.164062 " fill-opacity="1" fill-rule="nonzero"/><path fill="#003629" d="M 239.035156 518.164062 C 236.238281 518.164062 233.476562 516.835938 231.765625 514.363281 C 203.789062 474.011719 188.210938 422.484375 185.464844 361.195312 C 185.34375 358.46875 186.503906 355.835938 188.585938 354.066406 C 190.65625 352.292969 193.453125 351.605469 196.136719 352.179688 C 239.910156 361.539062 277.597656 376.820312 308.148438 397.609375 C 312.191406 400.347656 313.238281 405.847656 310.492188 409.871094 C 307.746094 413.921875 302.28125 414.957031 298.230469 412.203125 C 272.210938 394.511719 240.492188 381.023438 203.789062 372.035156 C 207.71875 424.824219 221.988281 469.269531 246.273438 504.300781 C 249.054688 508.304688 248.050781 513.804688 244.054688 516.585938 C 242.527344 517.648438 240.765625 518.164062 239.035156 518.164062 " fill-opacity="1" fill-rule="nonzero"/><path fill="#003629" d="M 378.339844 674.472656 C 375.773438 674.472656 373.226562 673.355469 371.476562 671.195312 C 349.296875 643.839844 338.511719 603.929688 339.421875 552.535156 C 339.5 547.671875 343.453125 543.902344 348.40625 543.859375 C 353.277344 543.957031 357.164062 547.980469 357.078125 552.84375 C 356.238281 599.964844 365.699219 636.035156 385.203125 660.082031 C 388.265625 663.875 387.679688 669.425781 383.898438 672.496094 C 382.265625 673.820312 380.292969 674.472656 378.339844 674.472656 " fill-opacity="1" fill-rule="nonzero"/><g clip-path="url(#16a32ec542)"><path fill="#003629" d="M 202.296875 142.378906 L 159.734375 195.597656 C 133.214844 228.734375 118.613281 270.363281 118.613281 312.816406 L 118.613281 718.898438 C 118.613281 749.148438 143.21875 773.738281 173.460938 773.738281 L 523.054688 773.738281 C 553.296875 773.738281 577.902344 749.148438 577.902344 718.898438 L 577.902344 312.816406 C 577.902344 270.378906 563.308594 228.75 536.773438 195.597656 L 494.21875 142.378906 Z M 523.054688 791.40625 L 173.460938 791.40625 C 133.492188 791.40625 100.957031 758.878906 100.957031 718.898438 L 100.957031 312.816406 C 100.957031 266.382812 116.933594 220.824219 145.9375 184.554688 L 191.160156 128.03125 C 192.835938 125.9375 195.382812 124.71875 198.058594 124.71875 L 498.46875 124.71875 C 501.144531 124.71875 503.683594 125.9375 505.355469 128.042969 L 550.570312 184.566406 C 579.578125 220.832031 595.570312 266.382812 595.570312 312.816406 L 595.570312 718.898438 C 595.570312 758.878906 563.035156 791.40625 523.054688 791.40625 " fill-opacity="1" fill-rule="nonzero"/></g><g clip-path="url(#67acc6283e)"><path fill="#003629" d="M 154.296875 40.3125 C 140.085938 40.3125 128.53125 51.878906 128.53125 66.085938 L 128.53125 98.945312 C 128.53125 113.15625 140.085938 124.71875 154.296875 124.71875 L 542.230469 124.71875 C 556.4375 124.71875 567.996094 113.15625 567.996094 98.945312 L 567.996094 66.085938 C 567.996094 51.878906 556.4375 40.3125 542.230469 40.3125 Z M 542.230469 142.378906 L 154.296875 142.378906 C 130.359375 142.378906 110.867188 122.894531 110.867188 98.945312 L 110.867188 66.085938 C 110.867188 42.148438 130.359375 22.65625 154.296875 22.65625 L 542.230469 22.65625 C 566.167969 22.65625 585.660156 42.148438 585.660156 66.085938 L 585.660156 98.945312 C 585.660156 122.894531 566.167969 142.378906 542.230469 142.378906 " fill-opacity="1" fill-rule="nonzero"/></g></svg>